<?xml version="1.0" standalone="no"?>
<!DOCTYPE svg PUBLIC "-//W3C//DTD SVG 20010904//EN"
 "http://www.w3.org/TR/2001/REC-SVG-20010904/DTD/svg10.dtd">
<svg version="1.0" xmlns="http://www.w3.org/2000/svg"
 width="1920.000000pt" height="1080.000000pt" viewBox="0 0 1920.000000 1080.000000"
 preserveAspectRatio="xMidYMid meet">

<g transform="translate(0.000000,1080.000000) scale(0.100000,-0.100000)"
fill="#000000" stroke="none">
<path d="M0 5400 l0 -5400 9600 0 9600 0 0 5400 0 5400 -5647 0 c-4677 -1
-5643 -3 -5618 -14 17 -7 44 -29 62 -49 28 -32 39 -68 122 -409 50 -205 96
-397 103 -425 9 -43 15 -53 32 -53 12 0 -5 -11 -36 -24 -184 -76 -323 -241
-363 -431 -12 -57 -15 -180 -15 -660 0 -324 -3 -701 -7 -836 l-6 -246 -916
-222 c-504 -122 -929 -221 -946 -221 -16 0 -49 9 -71 19 -86 39 -64 -36 -413
1402 -175 723 -322 1328 -326 1346 -13 62 36 161 95 193 9 5 583 147 1276 315
692 168 1264 307 1269 309 6 3 -1746 5 -3892 5 l-3903 1 0 -5400z m8753 4473
c-68 -2 -178 -2 -245 0 -68 1 -13 3 122 3 135 0 190 -2 123 -3z m-390 -10 c-7
-2 -21 -2 -30 0 -10 3 -4 5 12 5 17 0 24 -2 18 -5z m2269 0 c-228 -2 -597 -2
-820 0 -224 1 -38 2 413 2 451 0 634 -1 407 -2z m-2325 -9 c-3 -3 -12 -4 -19
-1 -8 3 -5 6 6 6 11 1 17 -2 13 -5z m3001 -1 c-10 -2 -26 -2 -35 0 -10 3 -2 5
17 5 19 0 27 -2 18 -5z m96 -19 c68 -23 51 -27 -19 -4 -33 10 -53 19 -44 19 8
1 37 -6 63 -15z m232 -148 c64 -64 134 -164 134 -191 0 -5 -15 16 -32 47 -39
73 -125 168 -188 209 -57 37 -65 47 -17 23 17 -9 64 -49 103 -88z m-2467 -75
c54 -39 65 -65 71 -176 5 -84 10 -108 25 -125 46 -51 36 -50 633 -50 559 0
559 0 587 22 40 31 55 77 55 165 0 60 5 86 20 110 40 66 36 66 393 64 190 -1
338 -6 362 -12 146 -39 267 -164 304 -314 10 -39 11 -418 7 -1750 -4 -935 -9
-1917 -12 -2182 l-6 -483 -30 0 c-64 0 -119 -69 -132 -165 -4 -27 -15 -75 -24
-105 l-17 -55 -6 90 -5 90 -2 -97 c-2 -88 -4 -98 -24 -112 -12 -9 -41 -16 -63
-16 -56 0 -77 -17 -73 -60 2 -28 11 -40 46 -63 48 -33 52 -43 18 -59 -55 -25
-56 -105 -2 -140 25 -16 43 -18 96 -15 36 3 73 8 82 12 13 5 15 2 11 -13 -5
-20 21 -55 47 -64 18 -6 -10 -87 -54 -158 -60 -96 -89 -154 -102 -205 -7 -27
-12 -51 -9 -53 11 -12 50 16 92 65 52 61 126 103 178 102 26 0 22 -3 -22 -18
-64 -22 -75 -30 -138 -98 -35 -38 -61 -57 -85 -62 -34 -7 -35 -9 -50 -76 -14
-60 -17 -67 -24 -45 -28 85 -116 160 -217 186 -111 29 -222 -7 -303 -97 -59
-65 -80 -129 -74 -223 10 -161 123 -273 284 -284 88 -6 154 14 212 63 22 19
42 35 44 35 3 0 -6 -53 -18 -118 -29 -145 -29 -151 -3 -118 31 39 71 56 155
65 41 5 81 15 90 22 24 19 51 79 59 129 17 106 66 170 130 170 19 0 37 -5 41
-11 5 -9 -1 -10 -20 -5 -35 9 -81 -16 -101 -54 -8 -16 -22 -61 -30 -100 -8
-39 -22 -84 -30 -101 -22 -42 -71 -69 -125 -69 -106 0 -171 -49 -203 -150 -14
-46 -117 -615 -117 -647 0 -18 58 -36 95 -29 53 10 89 48 140 147 57 110 104
165 155 180 l37 11 38 157 c20 86 40 159 44 163 3 4 4 -122 1 -280 l-5 -287
-32 -68 c-22 -47 -53 -88 -95 -130 -34 -33 -63 -56 -65 -50 -2 5 21 112 52
237 30 126 55 230 55 232 0 11 -29 1 -61 -20 -26 -18 -50 -51 -84 -118 -62
-120 -95 -162 -146 -182 -41 -17 -103 -14 -115 5 -14 23 -22 1 -38 -107 l-19
-116 -1336 7 c-1447 7 -1398 5 -1503 62 -26 14 -71 50 -98 79 l-50 53 0 860 0
861 -31 0 -31 0 7 2003 c4 1101 10 2315 14 2698 l6 695 38 76 c64 131 188 222
320 236 34 4 220 6 412 4 315 -3 352 -5 374 -21z m2620 -171 c0 -10 -3 -8 -9
5 -12 27 -12 43 0 25 5 -8 9 -22 9 -30z m8 -42 c-3 -8 -6 -5 -6 6 -1 11 2 17
5 13 3 -3 4 -12 1 -19z m10 -50 c-3 -7 -5 -2 -5 12 0 14 2 19 5 13 2 -7 2 -19
0 -25z m46 -422 c1222 -215 2749 -490 2770 -498 39 -15 83 -69 91 -111 5 -26
-46 -330 -179 -1079 -102 -574 -190 -1057 -196 -1075 -6 -18 -24 -44 -40 -57
-62 -53 -67 -53 -508 26 -394 69 -404 71 -419 52 -17 -22 -17 -21 37 110 61
147 59 152 -66 212 -49 23 -83 45 -83 54 0 10 -3 11 -8 4 -5 -8 -89 22 -267
94 -143 58 -262 108 -265 111 -3 4 -14 7 -24 9 -10 2 -44 14 -74 28 -63 28
-89 30 -118 9 -13 -9 -52 -90 -104 -218 l-82 -203 -237 43 c-130 23 -244 42
-253 43 -15 0 -18 -13 -21 -92 -7 -199 -7 900 1 1892 4 575 8 957 10 849 l2
-197 33 -6z m-4539 -1956 c114 -135 217 -263 229 -285 36 -69 29 -127 -61
-463 -45 -166 -88 -314 -96 -330 -29 -56 -103 -102 -163 -102 -90 0 -173 60
-198 142 -17 58 -16 61 24 78 48 20 55 85 16 169 -28 60 -26 78 5 38 11 -14
36 -35 56 -47 42 -26 39 -38 -4 -16 l-31 16 28 -67 c27 -66 28 -67 77 -78 27
-6 58 -16 70 -23 24 -13 89 -83 96 -103 3 -8 9 -11 13 -7 12 11 -24 218 -46
262 -23 49 -17 60 9 17 l19 -31 11 82 c7 46 12 99 13 118 0 28 2 31 8 15 8
-19 8 -19 15 3 16 48 17 12 2 -39 -23 -76 -21 -83 11 -62 l28 18 -27 -35 c-36
-48 -53 -114 -44 -174 l8 -48 14 28 c8 16 21 34 28 39 12 9 52 142 61 202 2
16 11 46 18 67 14 38 14 41 -9 59 -60 47 -94 152 -74 227 9 35 9 46 -5 66 -8
13 -11 24 -6 24 6 0 14 -7 19 -16 8 -14 12 -12 30 13 l21 30 -95 114 c-53 63
-102 121 -110 129 -26 27 35 -113 67 -153 25 -31 27 -37 11 -28 -12 6 -27 20
-35 31 -12 17 -13 13 -10 -38 2 -31 8 -83 14 -115 6 -33 8 -62 5 -65 -3 -3 -6
0 -6 6 0 19 -18 14 -23 -5 -3 -10 -3 20 0 67 l5 85 -22 -34 c-11 -18 -23 -31
-26 -28 -3 3 1 16 9 29 27 42 30 86 11 166 l-18 77 -8 -40 c-5 -22 -13 -44
-19 -50 -8 -7 -9 0 -3 25 5 19 8 54 7 78 -2 39 -12 55 -90 148 -55 65 -93 102
-101 99 -17 -6 -220 -154 -226 -164 -3 -4 -1 -29 3 -57 5 -27 9 -42 10 -33 0
9 10 27 22 40 18 21 20 21 13 4 -36 -101 -37 -108 -25 -153 6 -25 9 -47 6 -50
-3 -3 -5 1 -5 9 0 12 -2 11 -10 -1 -8 -12 -10 -11 -8 5 4 28 -23 198 -33 209
-4 4 -23 -4 -43 -19 -29 -22 -34 -30 -26 -45 8 -15 4 -23 -23 -40 l-32 -22 29
25 c19 16 24 27 17 32 -7 4 -11 13 -9 20 2 7 81 70 176 139 l174 125 27 -32
c16 -18 122 -142 235 -277z m513 -1057 c-1 -246 -2 -47 -2 442 0 490 1 691 2
448 2 -243 2 -643 0 -890z m-801 1157 c-7 -25 -16 -58 -20 -75 l-8 -30 24 23
c32 29 48 29 20 -1 -33 -35 -52 -91 -52 -157 0 -58 13 -79 25 -41 3 11 12 25
20 31 10 9 8 -2 -6 -36 -17 -37 -20 -59 -16 -102 10 -92 -11 -45 -31 74 -11
61 -27 125 -36 142 -19 36 -20 46 -5 36 6 -3 16 -19 23 -35 11 -26 13 -19 25
81 7 60 10 114 6 120 -3 5 -1 10 4 10 6 0 11 -8 12 -17 0 -14 3 -13 11 5 17
34 19 21 4 -28z m-379 -148 c-10 -10 -18 -34 -18 -53 -2 -30 -2 -31 -6 -6 -5
32 -10 33 -43 10 -36 -23 -12 0 35 36 46 35 55 39 32 13z m-110 -79 c-16 -16
-15 -19 6 -43 l22 -25 -27 24 c-26 23 -27 26 -11 43 9 10 19 18 22 18 3 0 -2
-8 -12 -17z m6128 -69 l38 -15 -31 -19 c-35 -21 -212 -41 -212 -23 0 29 68 59
161 72 4 1 24 -6 44 -15z m-6080 -24 c10 -11 16 -20 13 -20 -3 0 -13 9 -23 20
-10 11 -16 20 -13 20 3 0 13 -9 23 -20z m227 -27 c-3 -16 -7 -22 -10 -15 -4
13 4 42 11 42 2 0 2 -12 -1 -27z m-162 -53 c23 -27 40 -50 37 -50 -3 0 -24 23
-47 50 -23 28 -40 50 -37 50 3 0 24 -22 47 -50z m6303 -42 c32 -16 93 -35 135
-43 106 -21 166 -42 189 -68 25 -27 47 -108 38 -136 -9 -29 -17 -26 -39 11
-47 78 -119 138 -169 138 -43 0 -181 41 -239 71 -69 35 -141 39 -206 9 l-44
-20 -89 31 c-90 32 -94 35 -83 63 4 12 10 13 18 7 7 -6 44 -16 82 -22 64 -11
78 -10 169 13 l100 24 40 -25 c22 -13 66 -38 98 -53z m-5727 -19 c-23 -76 -21
-87 9 -59 14 13 25 19 25 13 0 -6 -7 -16 -16 -24 -38 -31 -58 -106 -48 -182
l7 -49 12 30 c23 54 33 43 12 -15 -20 -54 -20 -58 -4 -121 10 -36 15 -67 13
-69 -8 -9 -37 96 -52 187 -8 52 -24 112 -35 134 -25 47 -17 60 9 16 l20 -32 7
54 c8 61 44 182 51 175 3 -3 -2 -29 -10 -58z m-511 -19 c10 -11 16 -20 13 -20
-3 0 -13 9 -23 20 -10 11 -16 20 -13 20 3 0 13 -9 23 -20z m5761 -21 c32 -6
77 -16 99 -24 22 -7 83 -21 135 -30 112 -21 144 -35 162 -72 18 -37 103 -61
162 -45 37 10 42 8 90 -28 28 -21 72 -48 99 -59 51 -22 53 -25 36 -68 l-11
-28 -37 43 c-36 41 -43 45 -121 58 -107 19 -216 65 -257 110 l-32 36 -91 -8
c-73 -5 -94 -4 -108 8 -9 8 -53 34 -97 57 -73 39 -107 61 -94 61 3 0 32 -5 65
-11z m-5676 -84 c34 -41 59 -75 56 -75 -2 0 -32 34 -66 75 -34 41 -59 75 -56
75 2 0 32 -34 66 -75z m17 33 c-3 -8 -6 -5 -6 6 -1 11 2 17 5 13 3 -3 4 -12 1
-19z m5700 -83 c67 -30 123 -48 174 -55 62 -8 78 -15 99 -38 33 -37 110 -69
190 -78 56 -6 76 -15 147 -62 46 -30 83 -61 83 -68 0 -26 -12 -45 -24 -35 -33
27 -207 88 -267 94 -72 7 -110 20 -152 54 -15 12 -48 25 -75 29 -26 4 -64 15
-84 26 -33 16 -174 123 -218 164 -29 28 27 15 127 -31z m-132 -41 c15 -19 45
-49 68 -65 39 -28 57 -51 105 -130 22 -36 22 -37 2 -42 -11 -3 -18 -1 -15 3 7
12 -32 23 -46 14 -7 -4 -9 -3 -5 4 8 13 -29 26 -45 16 -8 -5 -9 -3 -4 6 5 9 2
10 -11 6 -11 -3 -26 -1 -34 5 -12 8 -9 9 9 4 l24 -7 -26 33 c-44 59 -85 189
-58 189 5 0 21 -16 36 -36z m-5500 -14 c10 -11 16 -20 13 -20 -3 0 -13 9 -23
20 -10 11 -16 20 -13 20 3 0 13 -9 23 -20z m12 -97 c-3 -10 -5 -2 -5 17 0 19
2 27 5 18 2 -10 2 -26 0 -35z m126 17 c-3 -12 -8 -19 -11 -16 -5 6 5 36 12 36
2 0 2 -9 -1 -20z m5612 -34 c19 -8 40 -24 47 -37 7 -12 36 -32 63 -45 28 -13
66 -38 86 -55 35 -29 42 -31 125 -33 58 -1 99 -7 118 -17 l29 -16 -68 -7 c-37
-4 -86 -16 -108 -26 -46 -23 -50 -24 -43 -11 8 12 -20 22 -41 14 -10 -4 -14
-2 -10 4 9 14 -48 37 -64 27 -7 -4 -10 -3 -5 4 8 13 -29 26 -45 16 -8 -5 -9
-3 -4 6 6 10 4 12 -11 6 -10 -4 -15 -4 -12 0 4 3 1 13 -7 21 -8 8 -15 23 -15
34 0 11 -23 45 -51 75 -54 57 -50 67 16 40z m-314 -13 c13 -16 12 -17 -3 -4
-10 7 -18 15 -18 17 0 8 8 3 21 -13z m-5434 -40 c-3 -10 -5 -4 -5 12 0 17 2
24 5 18 2 -7 2 -21 0 -30z m122 -10 c-2 -46 -2 -47 -8 -13 -4 19 -5 41 -3 48
8 24 12 11 11 -35z m5361 27 c8 -5 11 -10 5 -10 -5 0 -17 5 -25 10 -8 5 -10
10 -5 10 6 0 17 -5 25 -10z m-7611 -67 c19 -42 25 -123 11 -171 -12 -46 -78
-127 -112 -138 -18 -5 -18 -7 -2 -18 29 -21 -2 -29 -38 -9 -23 11 -57 17 -108
17 -85 1 -157 -26 -221 -82 -30 -26 -35 -36 -31 -66 5 -46 -36 -136 -74 -163
-40 -27 -90 -43 -133 -42 -31 1 -29 2 14 9 87 13 140 51 170 122 8 21 15 51
15 68 0 27 -3 30 -32 31 -21 1 -26 3 -13 6 11 3 34 17 50 32 17 16 40 35 53
43 l24 16 -37 12 c-111 37 -174 171 -131 275 19 45 44 45 116 3 71 -43 110
-113 110 -199 l0 -58 33 7 c17 4 62 7 99 7 l66 -1 -14 28 c-18 35 -18 129 0
171 19 43 75 96 122 112 51 19 49 19 63 -12z m10140 22 c-11 -10 -106 -14
-139 -6 -29 7 -19 9 54 10 49 1 87 -1 85 -4z m-184 -15 l20 -9 -20 0 c-11 0
-29 4 -40 9 l-20 9 20 0 c11 0 29 -4 40 -9z m245 0 c-8 -5 -26 -9 -40 -9 -23
0 -23 1 -5 9 11 5 29 9 40 9 17 1 17 -1 5 -9z m-8083 -37 c-3 -10 -5 -4 -5 12
0 17 2 24 5 18 2 -7 2 -21 0 -30z m7783 27 c13 -9 13 -10 0 -10 -8 0 -22 5
-30 10 -13 9 -13 10 0 10 8 0 22 -5 30 -10z m340 0 c-8 -5 -22 -10 -30 -10
-13 0 -13 1 0 10 8 5 22 10 30 10 13 0 13 -1 0 -10z m-1649 -27 c-12 -20 -14
-14 -5 12 4 9 9 14 11 11 3 -2 0 -13 -6 -23z m1269 17 c8 -5 11 -10 5 -10 -5
0 -17 5 -25 10 -8 5 -10 10 -5 10 6 0 17 -5 25 -10z m420 0 c-20 -13 -33 -13
-25 0 3 6 14 10 23 10 15 0 15 -2 2 -10z m-452 -9 c10 -6 8 -10 -9 -14 -12 -3
-30 -2 -38 4 -12 8 -10 8 8 3 16 -4 21 -3 17 5 -8 13 3 14 22 2z m482 -1 c-8
-5 -19 -10 -25 -10 -5 0 -3 5 5 10 8 5 20 10 25 10 6 0 3 -5 -5 -10z m54 -11
c14 -7 23 -17 19 -22 -4 -6 0 -8 11 -4 11 5 15 3 10 -4 -4 -7 -1 -10 7 -7 18
7 51 -10 44 -22 -3 -5 -30 3 -60 17 -30 15 -51 31 -48 36 3 5 -5 6 -18 2 -19
-5 -21 -4 -9 4 18 13 14 13 44 0z m-596 -20 c-7 -5 -21 -6 -32 -3 -12 4 -16 2
-12 -5 5 -7 1 -8 -10 -4 -11 4 -15 2 -11 -4 4 -6 -16 -24 -44 -42 -27 -17 -47
-26 -43 -20 4 7 1 10 -7 7 -8 -3 -13 -10 -12 -16 1 -6 -14 -25 -35 -43 -20
-17 -56 -54 -79 -82 -23 -28 -49 -52 -58 -53 -9 -1 -14 1 -10 4 4 4 12 7 18 7
5 0 12 6 15 14 3 10 0 11 -9 5 -8 -4 0 10 18 31 66 84 184 178 210 168 11 -4
14 -2 9 5 -9 15 48 44 70 35 12 -4 15 -3 10 5 -5 8 -2 10 9 5 13 -5 14 -7 3
-14z m-1197 -26 c-12 -20 -14 -14 -5 12 4 9 9 14 11 11 3 -2 0 -13 -6 -23z
m-6450 -47 c15 -16 10 -29 -6 -16 -8 7 -14 27 -14 44 2 27 2 28 6 6 3 -14 9
-29 14 -34z m8465 -58 c76 -72 158 -183 148 -199 -3 -5 0 -9 6 -9 6 0 8 -4 5
-10 -3 -5 -1 -10 5 -10 6 0 8 -5 4 -11 -7 -12 -19 3 -26 31 -2 8 -8 19 -15 25
-7 5 -13 16 -15 24 -4 21 -152 174 -198 206 -22 15 -37 31 -34 36 9 14 41 -8
120 -83z m-2035 55 c-12 -20 -14 -14 -5 12 4 9 9 14 11 11 3 -2 0 -13 -6 -23z
m-6454 -60 c-3 -10 -5 -2 -5 17 0 19 2 27 5 18 2 -10 2 -26 0 -35z m6434 10
c-12 -20 -14 -14 -5 12 4 9 9 14 11 11 3 -2 0 -13 -6 -23z m-23 -52 c-7 -11
-19 -23 -26 -26 -7 -3 -3 8 10 24 26 32 36 34 16 2z m-6345 4 c4 -8 3 -16 -1
-19 -4 -3 -9 4 -9 15 -2 23 3 25 10 4z m-1396 -6 c33 -12 90 -64 108 -99 27
-54 27 -126 0 -193 -7 -16 -3 -17 41 -12 29 4 69 1 100 -8 l50 -13 -4 51 c-8
93 55 194 144 231 19 8 42 14 53 14 42 0 55 -132 22 -207 -21 -46 -84 -98
-132 -108 l-30 -7 38 -27 c21 -15 44 -35 52 -44 9 -11 29 -17 58 -17 91 0 189
-77 217 -170 14 -44 13 -45 -13 -57 -36 -17 -115 -16 -157 2 -20 8 -49 29 -66
47 -22 23 -33 29 -36 20 -18 -54 -98 -104 -162 -101 -15 1 -8 5 18 10 81 16
129 59 147 131 6 24 3 28 -22 35 -84 22 -169 -6 -211 -71 -15 -23 -30 -43 -34
-46 -12 -10 6 -26 42 -37 26 -8 29 -11 13 -12 -28 -1 -28 -2 -3 -52 44 -85
116 -97 262 -44 59 22 85 26 136 22 62 -5 63 -5 76 27 38 89 138 135 235 109
21 -5 23 -10 18 -49 -9 -84 -79 -144 -167 -144 l-40 0 20 -32 c22 -36 28 -141
10 -168 -7 -11 -9 0 -4 36 4 31 1 66 -5 87 -16 46 -80 104 -125 113 -43 8
-112 -2 -145 -20 l-25 -14 31 -6 c78 -18 161 -173 101 -190 -35 -9 -104 -7
-133 4 -41 15 -83 69 -96 122 -12 47 -14 48 -50 48 -26 0 -47 8 -69 26 -37 32
-74 100 -65 122 3 9 3 13 -1 9 -4 -4 -17 9 -28 29 -15 25 -33 40 -60 50 -22 7
-52 22 -67 33 -32 24 -37 20 -68 -50 -17 -37 -30 -149 -17 -149 2 0 20 7 39
15 78 32 185 5 231 -58 25 -34 17 -52 -40 -85 -31 -18 -50 -22 -92 -19 l-53 4
60 -56 c62 -59 96 -120 86 -158 -8 -32 12 -26 49 16 38 42 82 61 140 61 63 0
96 -14 96 -42 0 -31 -39 -97 -71 -121 -33 -24 -107 -33 -148 -19 -37 13 -40 1
-12 -42 30 -46 57 -55 154 -56 87 0 157 -18 157 -40 0 -6 -12 -4 -31 6 -21 10
-52 15 -93 13 -33 -1 -68 0 -76 4 -48 17 -61 15 -71 -11 -6 -15 -9 -51 -7 -80
6 -70 45 -112 123 -134 27 -7 26 -7 -8 -3 -86 9 -131 72 -125 174 4 59 2 68
-18 83 -11 10 -27 32 -35 50 l-14 33 -7 -30 c-6 -23 -6 -20 -3 13 2 24 6 46 9
50 4 3 22 -2 41 -11 76 -36 159 -12 200 58 32 53 31 73 -1 85 -65 25 -163 -2
-201 -55 -52 -74 -47 -74 -67 12 -25 100 -28 104 -89 88 -53 -14 -93 -45 -113
-90 -7 -16 -13 -23 -14 -14 0 35 45 84 98 105 l53 21 -42 38 -42 38 -23 -45
c-12 -24 -30 -50 -38 -57 -9 -8 -16 -22 -16 -32 0 -11 -6 -19 -13 -19 -25 0
-144 28 -164 38 -18 10 -19 9 -14 -25 6 -35 9 -37 58 -48 29 -7 70 -24 92 -38
35 -24 40 -25 44 -9 3 12 5 10 6 -6 l1 -24 -177 3 c-98 2 -184 5 -190 7 -9 3
-13 27 -14 71 0 36 -2 62 -4 56 -2 -5 -11 -36 -20 -69 -9 -32 -18 -56 -21 -53
-4 4 3 40 31 163 4 20 3 20 -48 -5 -39 -20 -67 -26 -114 -26 l-63 0 -1 -50
c-1 -84 -17 -100 -18 -19 l-1 71 -46 24 c-72 37 -77 54 -30 93 l38 33 -17 33
c-9 17 -12 29 -6 26 6 -4 11 -3 11 3 0 5 13 12 29 16 42 9 108 70 121 111 14
41 9 149 -7 165 -18 18 -75 -6 -115 -49 -43 -45 -57 -70 -68 -125 -7 -35 -8
-37 -9 -12 -2 66 70 171 130 190 20 7 20 8 -9 38 -16 18 -37 46 -45 62 -22 45
-49 154 -41 168 4 7 3 9 -1 4 -10 -9 -37 51 -29 64 9 15 26 -2 21 -21 -3 -13
0 -17 9 -13 8 3 14 12 14 21 0 33 52 102 96 128 53 31 137 38 192 15 37 -15
39 -30 13 -86 -43 -94 -121 -139 -231 -134 -38 2 -70 1 -72 -1 -2 -3 -1 -4 1
-2 3 1 14 -29 26 -67 27 -83 54 -124 106 -157 25 -15 37 -29 33 -37 -4 -7 -3
-9 1 -4 5 4 19 0 32 -8 22 -15 23 -15 23 17 0 42 35 112 71 142 23 20 28 31
23 50 -5 20 0 27 25 40 47 25 139 21 194 -9 l46 -24 18 29 c9 17 20 30 23 30
3 1 17 11 33 23 l27 23 -17 35 c-21 42 -24 141 -4 187 14 34 31 39 78 21z
m1320 -26 c-3 -10 -5 -4 -5 12 0 17 2 24 5 18 2 -7 2 -21 0 -30z m6263 27 c8
-5 11 -10 5 -10 -5 0 -17 5 -25 10 -8 5 -10 10 -5 10 6 0 17 -5 25 -10z m50
-20 c8 -5 11 -10 5 -10 -5 0 -17 5 -25 10 -8 5 -10 10 -5 10 6 0 17 -5 25 -10z
m47 -16 c-3 -3 -12 -4 -19 -1 -8 3 -5 6 6 6 11 1 17 -2 13 -5z m-6363 -84 c2
0 28 8 58 18 46 15 62 16 105 7 68 -16 116 -47 152 -101 l30 -45 15 28 c8 15
15 23 16 17 0 -23 -59 -91 -96 -110 -53 -26 -137 -25 -189 2 -22 12 -53 40
-70 63 -24 35 -29 52 -31 109 -1 37 0 55 3 40 2 -16 6 -28 7 -28z m7340 8 c-3
-5 -10 -5 -16 -2 -7 5 -9 2 -6 -7 3 -8 -4 -34 -17 -58 -17 -34 -23 -40 -28
-27 -5 11 -3 15 5 10 8 -5 9 -2 5 10 -5 11 -3 15 5 10 8 -5 9 -2 5 10 -5 11
-3 15 4 10 7 -4 10 -1 7 7 -7 19 8 46 26 46 8 0 13 -4 10 -9z m-9464 -33 c26
-27 31 -38 22 -47 -9 -9 -12 -9 -13 0 -5 45 -13 49 -91 48 -60 -1 -82 -6 -119
-28 -50 -30 -95 -87 -105 -134 -7 -37 4 -43 88 -53 l56 -6 -25 -30 c-25 -29
-25 -29 -9 -2 l16 27 -35 0 c-47 0 -105 25 -105 45 0 27 30 89 58 118 37 40
94 67 153 74 27 3 52 10 55 14 9 15 19 10 54 -26z m2507 -27 c-3 -8 -6 -5 -6
6 -1 11 2 17 5 13 3 -3 4 -12 1 -19z m-2526 -86 c-21 -42 -68 -86 -101 -97
l-20 -6 20 -29 c26 -36 60 -110 60 -130 0 -8 -11 10 -24 41 -12 31 -32 70 -44
87 -27 37 -27 38 1 46 44 12 116 96 118 140 1 16 2 17 6 4 2 -9 -5 -34 -16
-56z m-546 49 c-68 -17 -135 -72 -169 -138 -22 -43 -20 -62 7 -73 12 -5 17 -9
10 -9 -48 -3 -54 28 -18 98 37 73 115 131 175 130 23 -1 22 -2 -5 -8z m11380
-31 c-3 -6 -1 -10 5 -10 7 0 10 -7 6 -15 -3 -8 -2 -15 3 -15 12 0 31 -95 38
-185 10 -146 -31 -317 -109 -450 -62 -106 -254 -286 -272 -256 -3 5 12 20 34
35 22 14 40 24 40 22 0 -14 145 150 179 203 106 166 141 388 90 576 -12 44
-22 88 -22 98 -1 9 -5 17 -10 17 -4 0 -5 5 -1 11 5 8 10 6 16 -5 5 -9 6 -21 3
-26z m-1427 -34 c-8 -26 -14 -33 -20 -24 -6 8 -7 0 -4 -22 5 -30 5 -31 -4 -12
-12 30 -2 81 12 60 7 -9 8 -6 5 10 -3 13 -3 31 0 39 13 32 22 -13 11 -51z
m-2275 -423 c36 27 68 45 52 30 -17 -16 -83 -63 -89 -63 -3 0 -5 116 -4 258
l3 257 2 -253 3 -253 33 24z m2744 440 c-3 -10 -5 -4 -5 12 0 17 2 24 5 18 2
-7 2 -21 0 -30z m500 -30 c-3 -10 -5 -2 -5 17 0 19 2 27 5 18 2 -10 2 -26 0
-35z m-510 -40 c-3 -10 -5 -4 -5 12 0 17 2 24 5 18 2 -7 2 -21 0 -30z m520
-30 c-3 -10 -5 -4 -5 12 0 17 2 24 5 18 2 -7 2 -21 0 -30z m-1008 -23 c0 -9
-4 -8 -9 5 -5 11 -9 27 -9 35 0 9 4 8 9 -5 5 -11 9 -27 9 -35z m609 -22 c53
-59 140 -74 220 -38 25 11 50 32 60 50 31 56 44 68 27 25 -39 -103 -183 -144
-280 -81 -27 18 -69 72 -78 101 -6 19 -6 19 6 1 7 -11 27 -37 45 -58z m-131 5
c-3 -10 -5 -4 -5 12 0 17 2 24 5 18 2 -7 2 -21 0 -30z m-488 -62 c1 -51 -5
-34 -12 29 -4 36 -3 46 3 30 4 -14 8 -40 9 -59z m1028 22 c-3 -10 -5 -2 -5 17
0 19 2 27 5 18 2 -10 2 -26 0 -35z m-550 -30 c-3 -10 -5 -4 -5 12 0 17 2 24 5
18 2 -7 2 -21 0 -30z m-500 -75 c-2 -18 -4 -6 -4 27 0 33 2 48 4 33 2 -15 2
-42 0 -60z m1060 25 c-3 -10 -5 -2 -5 17 0 19 2 27 5 18 2 -10 2 -26 0 -35z
m-10620 -35 c-2 -13 -4 -3 -4 22 0 25 2 35 4 23 2 -13 2 -33 0 -45z m10050 15
c-3 -10 -5 -4 -5 12 0 17 2 24 5 18 2 -7 2 -21 0 -30z m-10370 0 c-20 -2 -52
-2 -70 0 -17 2 0 4 38 4 39 0 53 -2 32 -4z m86 -10 c-7 -2 -19 -2 -25 0 -7 3
-2 5 12 5 14 0 19 -2 13 -5z m414 -15 c-3 -8 -6 -5 -6 6 -1 11 2 17 5 13 3 -3
4 -12 1 -19z m9398 -43 c-3 -31 -9 -55 -11 -52 -3 2 -2 30 2 61 4 31 9 54 12
52 2 -3 1 -30 -3 -61z m1052 18 c-3 -10 -5 -2 -5 17 0 19 2 27 5 18 2 -10 2
-26 0 -35z m-10798 17 c39 -19 91 -72 91 -92 0 -6 -10 4 -23 23 -12 19 -45 46
-72 61 -57 31 -54 38 4 8z m10208 -37 c-3 -10 -5 -4 -5 12 0 17 2 24 5 18 2
-7 2 -21 0 -30z m-9989 -81 c-1 -4 11 -10 28 -14 18 -5 10 -6 -24 -3 -29 2
-50 0 -47 -4 2 -5 -9 -14 -25 -21 -32 -13 -90 -73 -90 -93 0 -8 -3 -7 -9 2
-10 16 -3 43 9 36 5 -3 12 0 16 6 4 7 3 10 -2 7 -5 -3 -18 -2 -29 3 -16 7 -13
8 13 6 18 -2 37 2 43 10 8 9 8 13 0 13 -6 0 -10 14 -10 33 2 28 3 29 6 6 l4
-26 37 18 c20 11 46 19 59 19 l22 0 -24 43 c-14 23 -25 49 -25 57 0 8 11 -9
25 -38 13 -29 24 -56 23 -60z m-381 -12 c26 -24 39 -38 28 -32 -42 22 -116
110 -115 137 1 6 10 -6 20 -26 11 -20 41 -56 67 -79z m520 78 c-3 -7 -5 -2 -5
12 0 14 2 19 5 13 2 -7 2 -19 0 -25z m7356 -5 c-7 -2 -19 -2 -25 0 -7 3 -2 5
12 5 14 0 19 -2 13 -5z m3094 -40 c-3 -10 -5 -2 -5 17 0 19 2 27 5 18 2 -10 2
-26 0 -35z m-3150 31 c-3 -3 -12 -4 -19 -1 -8 3 -5 6 6 6 11 1 17 -2 13 -5z
m110 0 c-3 -3 -12 -4 -19 -1 -8 3 -5 6 6 6 11 1 17 -2 13 -5z m-157 -14 c-8
-5 -19 -10 -25 -10 -5 0 -3 5 5 10 8 5 20 10 25 10 6 0 3 -5 -5 -10z m2587
-27 c-3 -10 -5 -4 -5 12 0 17 2 24 5 18 2 -7 2 -21 0 -30z m-9854 5 c-5 -7
-13 -21 -17 -32 -5 -14 -2 -17 9 -12 11 4 14 2 9 -6 -5 -7 -2 -9 8 -5 9 3 30
-5 49 -19 18 -13 27 -24 20 -24 -11 0 -11 -3 -1 -15 6 -8 10 -22 7 -32 -4 -15
-5 -15 -6 3 -1 27 -35 58 -91 83 -25 11 -40 21 -35 21 6 0 19 13 30 29 11 17
21 28 24 26 2 -3 -1 -10 -6 -17z m7543 -15 c21 -15 57 -30 79 -34 l40 -6 -36
-2 c-22 0 -46 6 -60 18 -13 10 -37 25 -54 34 -16 9 -25 16 -19 17 6 0 29 -12
50 -27z m1843 -14 c-11 -16 -25 -28 -31 -26 -6 1 -13 -4 -16 -12 -3 -9 0 -11
9 -6 7 5 3 -6 -10 -23 -12 -17 -27 -31 -33 -29 -6 1 -13 -4 -16 -12 -3 -10 0
-11 9 -5 8 4 -2 -14 -22 -41 -20 -26 -44 -50 -53 -51 -14 -2 -13 2 4 27 12 16
26 28 32 26 6 -1 13 4 16 12 3 10 0 11 -9 5 -12 -7 15 34 88 132 30 41 61 43
32 3z m1088 -36 c-3 -10 -5 -2 -5 17 0 19 2 27 5 18 2 -10 2 -26 0 -35z m-630
-10 c-3 -10 -5 -4 -5 12 0 17 2 24 5 18 2 -7 2 -21 0 -30z m-2106 -6 c36 -24
99 -101 99 -120 0 -7 -10 4 -21 23 -32 54 -60 81 -104 101 -22 10 -33 19 -24
19 9 0 31 -10 50 -23z m-8098 -14 c-7 -2 -21 -2 -30 0 -10 3 -4 5 12 5 17 0
24 -2 18 -5z m10844 -50 c-3 -10 -5 -2 -5 17 0 19 2 27 5 18 2 -10 2 -26 0
-35z m-650 0 c-3 -10 -5 -4 -5 12 0 17 2 24 5 18 2 -7 2 -21 0 -30z m-10127
-38 c0 -5 -5 -3 -11 5 -8 11 -9 6 -5 -20 5 -30 5 -32 -4 -11 -13 29 -3 72 11
50 5 -8 9 -18 9 -24z m10117 -32 c-3 -10 -5 -4 -5 12 0 17 2 24 5 18 2 -7 2
-21 0 -30z m673 2 l0 -35 -342 2 -343 3 338 2 337 3 0 30 c0 17 2 30 5 30 3 0
5 -16 5 -35z m-2828 -12 c47 -49 55 -70 73 -209 26 -201 16 -393 -24 -473 -25
-48 -71 -90 -115 -105 -45 -15 -155 -4 -228 24 -29 11 -53 18 -55 16 -8 -7 81
-79 116 -93 20 -9 61 -16 93 -17 l56 -1 7 -62 7 -63 47 0 c31 0 65 9 97 25 58
29 61 30 43 9 -24 -29 -87 -54 -139 -54 l-50 0 0 -42 c-1 -57 -28 -116 -73
-155 -45 -39 -96 -56 -162 -51 -49 3 -49 3 -50 39 -1 24 -12 50 -32 75 -16 22
-32 47 -36 56 -5 15 -2 16 19 8 60 -23 84 34 39 88 -53 63 -69 119 -65 217 8
194 8 196 -27 251 -33 51 -39 89 -24 144 6 22 13 25 55 26 37 2 59 10 93 33
24 17 51 31 61 31 13 0 14 -2 4 -9 -20 -12 -10 -46 13 -46 23 0 33 34 13 46
-10 7 -10 9 2 9 12 1 11 4 -4 15 -17 13 -17 15 12 52 16 21 35 56 42 78 51
165 119 213 192 138z m-7887 17 c-27 -12 -43 -12 -25 0 8 5 22 9 30 9 10 0 8
-3 -5 -9z m135 0 c18 -12 2 -12 -25 0 -13 6 -15 9 -5 9 8 0 22 -4 30 -9z
m-234 -40 c3 0 17 7 32 16 25 15 26 15 7 -1 -11 -9 -28 -21 -37 -26 -16 -8
-18 -5 -17 23 1 24 3 27 6 11 2 -13 6 -23 9 -23z m307 -8 c18 -19 17 -21 -14
-56 -32 -37 -77 -66 -101 -66 -7 0 5 9 27 19 23 10 54 33 69 52 l28 33 -33 29
c-19 16 -25 25 -14 19 11 -6 28 -19 38 -30z m7864 -99 c-2 -21 -4 -4 -4 37 0
41 2 58 4 38 2 -21 2 -55 0 -75z m1352 76 l-19 -27 27 -10 c25 -9 25 -11 6
-11 -12 -1 -28 6 -36 14 -8 8 -18 11 -23 7 -4 -4 2 7 14 24 11 17 28 31 36 31
12 0 11 -5 -5 -28z m391 -62 c43 -46 96 -96 119 -111 22 -16 38 -33 35 -38 -3
-5 0 -8 8 -6 21 4 118 -43 111 -55 -3 -5 4 -6 18 -3 19 6 21 5 7 -4 -19 -12
-51 -3 -41 13 4 6 0 8 -11 4 -11 -5 -15 -3 -10 5 5 8 2 9 -10 5 -11 -5 -15 -3
-10 5 5 8 2 9 -10 5 -11 -5 -15 -3 -10 4 4 7 1 10 -7 7 -20 -7 -51 11 -43 24
5 7 2 9 -8 6 -28 -11 -200 147 -210 193 -2 8 -12 17 -23 21 -19 6 -19 6 -1 7
11 1 49 -31 96 -82z m-120 63 c20 -6 21 -8 5 -8 -11 0 -31 4 -45 8 -20 6 -21
8 -5 8 11 0 31 -4 45 -8z m-65 -10 l20 -9 -20 0 c-11 0 -29 4 -40 9 l-20 9 20
0 c11 0 29 -4 40 -9z m-65 -10 c20 -6 21 -8 5 -8 -11 0 -31 4 -45 8 -20 6 -21
8 -5 8 11 0 31 -4 45 -8z m-65 -10 l20 -9 -20 0 c-11 0 -29 4 -40 9 l-20 9 20
0 c11 0 29 -4 40 -9z m-9567 -26 l27 -26 -26 16 -26 16 -7 -46 c-3 -26 -6 -65
-7 -88 0 -23 -3 -35 -6 -28 -2 6 -10 9 -16 5 -8 -4 -8 -2 1 9 10 12 8 20 -10
43 -11 15 -35 36 -52 46 -17 10 -25 19 -19 19 7 0 31 -16 53 -36 l40 -36 0 35
c0 38 10 97 17 97 2 0 16 -12 31 -26z m9462 0 c0 -2 -7 -4 -15 -4 -8 0 -15 4
-15 10 0 5 7 7 15 4 8 -4 15 -8 15 -10z m-637 -34 c-3 -11 -7 -20 -9 -20 -2 0
-4 9 -4 20 0 11 4 20 9 20 5 0 7 -9 4 -20z m77 10 c8 -5 11 -10 5 -10 -5 0
-17 5 -25 10 -8 5 -10 10 -5 10 6 0 17 -5 25 -10z m-9153 -6 c-3 -3 -12 -4
-19 -1 -8 3 -5 6 6 6 11 1 17 -2 13 -5z m90 0 c-3 -3 -12 -4 -19 -1 -8 3 -5 6
6 6 11 1 17 -2 13 -5z m240 -10 c-3 -3 -12 -4 -19 -1 -8 3 -5 6 6 6 11 1 17
-2 13 -5z m8873 -4 c8 -5 11 -10 5 -10 -5 0 -17 5 -25 10 -8 5 -10 10 -5 10 6
0 17 -5 25 -10z m-9271 -4 c-2 -2 -15 -9 -29 -15 -24 -11 -24 -11 -6 3 16 13
49 24 35 12z m454 -3 c-7 -2 -21 -2 -30 0 -10 3 -4 5 12 5 17 0 24 -2 18 -5z
m3307 -473 l0 -480 -1530 0 -1530 0 0 -435 0 -435 -242 1 c-134 1 -234 4 -224
6 15 4 16 7 5 14 -11 7 -9 9 8 9 12 0 25 -4 28 -10 4 -6 85 -10 211 -10 l204
0 0 435 c0 341 3 435 13 435 6 0 227 0 490 0 262 0 477 3 477 7 0 5 12 22 26
38 l26 30 -21 -32 c-12 -17 -21 -34 -21 -37 0 -3 466 -6 1035 -6 l1035 0 0
475 c0 261 2 475 5 475 3 0 5 -216 5 -480z m5560 460 c8 -5 11 -10 5 -10 -5 0
-17 5 -25 10 -8 5 -10 10 -5 10 6 0 17 -5 25 -10z m-1755 -11 c-4 -5 -10 -31
-15 -57 -8 -47 -8 -47 -9 -9 -1 35 13 77 25 77 3 0 2 -5 -1 -11z m1562 -11
c-3 -8 -6 -5 -6 6 -1 11 2 17 5 13 3 -3 4 -12 1 -19z m-9194 -4 c-6 -16 13
-34 71 -66 17 -9 26 -17 20 -18 -6 0 -32 14 -57 31 -44 29 -56 47 -40 62 10
11 13 8 6 -9z m9482 -12 c38 -15 70 -35 73 -43 2 -9 1 -10 -5 -2 -4 6 -38 23
-75 38 -38 15 -68 29 -68 31 0 6 4 5 75 -24z m-7810 -48 c-8 -20 -18 -35 -20
-32 -3 3 1 18 10 34 8 16 15 38 16 49 1 15 2 16 6 3 2 -9 -3 -33 -12 -54z
m-1308 -36 c-2 -18 -4 -6 -4 27 0 33 2 48 4 33 2 -15 2 -42 0 -60z m8134 55
c-12 -20 -14 -14 -5 12 4 9 9 14 11 11 3 -2 0 -13 -6 -23z m686 -5 c-3 -8 -6
-5 -6 6 -1 11 2 17 5 13 3 -3 4 -12 1 -19z m-700 -50 c-3 -7 -5 -2 -5 12 0 14
2 19 5 13 2 -7 2 -19 0 -25z m-8207 12 c-8 -5 -24 -9 -35 -9 -16 1 -16 2 5 9
35 11 48 11 30 0z m513 3 c-13 -2 -33 -2 -45 0 -13 2 -3 4 22 4 25 0 35 -2 23
-4z m8384 -15 c-3 -8 -6 -5 -6 6 -1 11 2 17 5 13 3 -3 4 -12 1 -19z m370 -10
c-3 -7 -5 -2 -5 12 0 14 2 19 5 13 2 -7 2 -19 0 -25z m1658 22 c7 -12 -52 -43
-67 -34 -6 4 3 14 23 25 41 22 37 21 44 9z m-11068 -6 c-3 -3 -12 -4 -19 -1
-8 3 -5 6 6 6 11 1 17 -2 13 -5z m-179 -11 c-15 -2 -42 -2 -60 0 -18 2 -6 4
27 4 33 0 48 -2 33 -4z m245 0 c-7 -2 -19 -2 -25 0 -7 3 -2 5 12 5 14 0 19 -2
13 -5z m-352 -12 c-27 -17 53 -122 139 -184 24 -17 24 -17 2 -6 -38 17 -98 76
-131 128 -35 55 -38 71 -13 71 14 0 14 -2 3 -9z m503 -24 c4 -19 3 -26 -4 -22
-5 3 -10 18 -10 32 0 32 5 28 14 -10z m383 1 c-3 -7 -5 -2 -5 12 0 14 2 19 5
13 2 -7 2 -19 0 -25z m-659 -8 c37 -26 92 -102 92 -126 0 -5 -14 15 -31 44
-20 35 -46 63 -76 83 -26 16 -42 29 -36 29 5 0 28 -13 51 -30z m11046 21 c7
-11 -22 -23 -36 -15 -6 4 -5 10 3 15 18 11 26 11 33 0z m-2600 -103 c-3 -4 0
-8 6 -8 6 0 8 -4 5 -10 -3 -5 -2 -10 3 -10 12 0 34 -49 27 -61 -4 -5 -1 -9 5
-9 6 0 8 -5 4 -11 -5 -8 -10 -6 -16 5 -5 9 -6 21 -3 26 3 6 2 10 -3 10 -5 0
-15 14 -22 31 -10 22 -15 27 -21 17 -13 -19 -11 0 2 24 9 17 9 20 -4 15 -11
-4 -16 3 -20 31 -7 57 4 60 24 7 10 -27 16 -52 13 -57z m643 80 c-3 -8 -6 -5
-6 6 -1 11 2 17 5 13 3 -3 4 -12 1 -19z m370 -10 c-3 -7 -5 -2 -5 12 0 14 2
19 5 13 2 -7 2 -19 0 -25z m-9094 15 c-7 -2 -19 -2 -25 0 -7 3 -2 5 12 5 14 0
19 -2 13 -5z m10157 -3 c-8 -5 -19 -10 -25 -10 -5 0 -3 5 5 10 8 5 20 10 25
10 6 0 3 -5 -5 -10z m475 0 c3 -5 2 -10 -4 -10 -5 0 -13 5 -16 10 -3 6 -2 10
4 10 5 0 13 -4 16 -10z m-10578 -6 c-3 -3 -12 -4 -19 -1 -8 3 -5 6 6 6 11 1
17 -2 13 -5z m10143 -4 c-8 -5 -22 -10 -30 -10 -13 0 -13 1 0 10 8 5 22 10 30
10 13 0 13 -1 0 -10z m405 0 c8 -13 -5 -13 -25 0 -13 8 -13 10 2 10 9 0 20 -4
23 -10z m-365 -10 c-8 -5 -22 -10 -30 -10 -13 0 -13 1 0 10 8 5 22 10 30 10
13 0 13 -1 0 -10z m325 0 c3 -5 -1 -10 -9 -10 -8 0 -18 5 -21 10 -3 6 1 10 9
10 8 0 18 -4 21 -10z m-10654 -25 c13 9 11 -7 -5 -27 -7 -10 -17 -14 -21 -10
-5 4 -5 -1 -2 -11 8 -20 -42 -81 -85 -103 -21 -11 -33 -12 -46 -4 -14 9 -13
10 7 4 16 -4 21 -3 17 5 -5 7 -1 9 9 5 9 -4 15 -2 13 3 -2 5 11 22 28 36 17
15 37 40 44 57 7 16 16 27 22 24 5 -3 7 5 5 18 -2 12 -2 17 0 10 3 -7 9 -10
14 -7z m240 -22 c30 -32 69 -93 69 -108 0 -5 -13 13 -30 41 -16 29 -46 66 -67
84 -21 18 -29 27 -18 22 11 -6 32 -23 46 -39z m156 15 c-3 -7 -5 -2 -5 12 0
14 2 19 5 13 2 -7 2 -19 0 -25z m9998 22 c-11 -5 -31 -9 -45 -9 -23 0 -23 1
-5 9 11 5 31 9 45 9 23 0 23 -1 5 -9z m215 0 c12 -8 10 -10 -10 -10 -14 0 -32
5 -40 10 -12 8 -10 10 10 10 14 0 32 -5 40 -10z m-1803 -22 c-3 -8 -6 -5 -6 6
-1 11 2 17 5 13 3 -3 4 -12 1 -19z m370 -10 c-3 -7 -5 -2 -5 12 0 14 2 19 5
13 2 -7 2 -19 0 -25z m1330 15 c-20 -2 -52 -2 -70 0 -17 2 0 4 38 4 39 0 53
-2 32 -4z m-10433 -122 c11 -13 41 -37 65 -52 25 -16 41 -29 35 -29 -42 0
-166 134 -164 177 1 4 10 -10 22 -32 11 -22 30 -51 42 -64z m1293 52 c-3 -10
-5 -4 -5 12 0 17 2 24 5 18 2 -7 2 -21 0 -30z m7430 15 c-3 -8 -6 -5 -6 6 -1
11 2 17 5 13 3 -3 4 -12 1 -19z m403 -3 c44 -22 78 -53 95 -86 11 -19 45 -207
45 -243 0 -3 6 -6 14 -6 10 0 15 -17 18 -61 1 -34 0 -63 -4 -66 -5 -2 -8 -53
-8 -113 0 -104 -1 -109 -28 -138 -28 -30 -37 -47 -92 -183 -50 -124 -134 -187
-212 -160 -17 6 -32 11 -33 11 -1 0 -5 -23 -8 -52 -4 -28 -11 -56 -15 -60 -6
-6 -79 58 -182 156 l-172 166 -28 -30 c-37 -40 -88 -60 -150 -60 -59 0 -93 15
-170 75 -131 101 -175 99 -349 -13 -35 -23 -80 -46 -100 -52 -77 -21 -178 -5
-241 40 -45 32 -31 35 24 4 57 -32 154 -43 212 -24 21 7 74 35 117 63 164 105
211 103 360 -10 78 -61 127 -78 187 -64 49 11 120 55 120 75 0 18 -210 218
-275 262 -27 19 -72 41 -100 50 -27 8 -56 18 -64 20 -8 2 -12 7 -9 9 8 8 117
-33 167 -62 25 -14 91 -70 146 -122 55 -53 190 -182 300 -288 177 -170 201
-190 206 -170 3 12 14 93 24 179 10 87 21 156 23 153 3 -2 -1 -54 -8 -116 -11
-94 -11 -112 1 -120 43 -27 131 8 170 68 14 21 38 70 53 108 33 84 66 143 95
169 19 17 21 30 21 116 l0 97 -49 -24 c-58 -29 -141 -39 -195 -24 -22 6 -42 9
-44 6 -2 -2 -10 -46 -17 -97 -7 -51 -13 -79 -13 -63 -1 17 5 77 13 135 20 148
23 138 -32 143 l-48 3 54 2 54 2 -7 -54 -6 -55 46 -7 c67 -10 140 2 201 31
l53 26 0 55 c0 30 -1 54 -2 55 -9 3 -199 18 -228 18 l-36 0 1 51 0 52 -59 24
c-33 13 -61 26 -64 29 -6 5 46 135 61 154 33 40 106 47 167 16z m-8793 -17
c-3 -7 -5 -2 -5 12 0 14 2 19 5 13 2 -7 2 -19 0 -25z m1208 -35 c14 -21 25
-47 25 -58 -1 -14 -5 -10 -16 15 -8 19 -25 45 -36 57 -12 13 -16 23 -10 23 6
0 23 -17 37 -37z m7172 5 c-3 -8 -6 -5 -6 6 -1 11 2 17 5 13 3 -3 4 -12 1 -19z
m-8960 -20 c-3 -7 -5 -2 -5 12 0 14 2 19 5 13 2 -7 2 -19 0 -25z m590 -10 c-3
-7 -5 -2 -5 12 0 14 2 19 5 13 2 -7 2 -19 0 -25z m940 -15 c-3 -10 -5 -4 -5
12 0 17 2 24 5 18 2 -7 2 -21 0 -30z m7420 -5 c-3 -8 -6 -5 -6 6 -1 11 2 17 5
13 3 -3 4 -12 1 -19z m-9032 2 c13 -6 15 -9 5 -9 -8 0 -22 4 -30 9 -18 12 -2
12 25 0z m8487 -22 c-7 -7 -12 -8 -12 -2 0 14 12 26 19 19 2 -3 -1 -11 -7 -17z
m-8399 0 c-2 -5 -13 -8 -24 -8 -25 0 -24 -15 2 -34 25 -17 89 -104 89 -120 0
-6 -9 5 -21 24 -32 54 -109 129 -126 123 -11 -4 -12 -8 -3 -13 10 -6 9 -13 -3
-30 -11 -15 -16 -18 -20 -8 -6 13 -14 6 -56 -51 -10 -13 -21 -20 -24 -14 -9
14 36 73 84 109 28 20 52 30 74 30 18 -1 31 -4 28 -8z m594 -20 c-3 -7 -5 -2
-5 12 0 14 2 19 5 13 2 -7 2 -19 0 -25z m-100 0 c-3 -8 -6 -5 -6 6 -1 11 2 17
5 13 3 -3 4 -12 1 -19z m7914 -31 c-8 -8 -11 -5 -11 9 0 27 14 41 18 19 2 -9
-1 -22 -7 -28z m526 21 c-3 -8 -6 -5 -6 6 -1 11 2 17 5 13 3 -3 4 -12 1 -19z
m-7420 -25 c-3 -10 -5 -4 -5 12 0 17 2 24 5 18 2 -7 2 -21 0 -30z m300 0 c-3
-10 -5 -4 -5 12 0 17 2 24 5 18 2 -7 2 -21 0 -30z m-1369 10 c-10 -2 -26 -2
-35 0 -10 3 -2 5 17 5 19 0 27 -2 18 -5z m55 0 c-7 -2 -19 -2 -25 0 -7 3 -2 5
12 5 14 0 19 -2 13 -5z m104 -40 c-3 -10 -5 -4 -5 12 0 17 2 24 5 18 2 -7 2
-21 0 -30z m8320 5 c-3 -8 -6 -5 -6 6 -1 11 2 17 5 13 3 -3 4 -12 1 -19z
m-7120 -30 c-3 -7 -5 -2 -5 12 0 14 2 19 5 13 2 -7 2 -19 0 -25z m6580 -15
c-3 -10 -5 -2 -5 17 0 19 2 27 5 18 2 -10 2 -26 0 -35z m-8490 -40 c-2 -16 -4
-3 -4 27 0 30 2 43 4 28 2 -16 2 -40 0 -55z m1610 30 c-3 -10 -5 -4 -5 12 0
17 2 24 5 18 2 -7 2 -21 0 -30z m7410 5 c-3 -8 -6 -5 -6 6 -1 11 2 17 5 13 3
-3 4 -12 1 -19z m-8300 -20 c-3 -7 -5 -2 -5 12 0 14 2 19 5 13 2 -7 2 -19 0
-25z m7803 7 c0 -8 -4 -15 -10 -15 -5 0 -7 -6 -4 -14 3 -7 -13 -35 -35 -60
-23 -26 -41 -43 -41 -38 0 5 7 15 15 22 8 6 14 15 13 18 -3 23 4 42 12 37 6
-4 7 -11 4 -17 -4 -7 -2 -8 4 -4 9 5 9 13 2 26 -15 28 -12 37 4 14 11 -14 14
-15 14 -4 -2 32 2 50 12 50 6 0 10 -7 10 -15z m-8610 -36 c0 -6 -4 -7 -10 -4
-5 3 -10 11 -10 16 0 6 5 7 10 4 6 -3 10 -11 10 -16z m9097 -1 c-3 -8 -6 -5
-6 6 -1 11 2 17 5 13 3 -3 4 -12 1 -19z m-8280 -30 c-3 -7 -5 -2 -5 12 0 14 2
19 5 13 2 -7 2 -19 0 -25z m870 -5 c-3 -10 -5 -4 -5 12 0 17 2 24 5 18 2 -7 2
-21 0 -30z m-1697 1 c0 -8 -4 -12 -10 -9 -5 3 -10 13 -10 21 0 8 5 12 10 9 6
-3 10 -13 10 -21z m211 -123 c28 -22 55 -41 60 -41 4 0 10 10 12 23 5 20 5 20
4 -2 -3 -38 -20 -35 -80 14 -50 41 -107 116 -107 141 0 5 13 -14 30 -42 16
-28 52 -70 81 -93z m76 97 c-3 -7 -5 -2 -5 12 0 14 2 19 5 13 2 -7 2 -19 0
-25z m8810 10 c-3 -8 -6 -5 -6 6 -1 11 2 17 5 13 3 -3 4 -12 1 -19z m-8260
-40 c-3 -7 -5 -2 -5 12 0 14 2 19 5 13 2 -7 2 -19 0 -25z m8278 4 c-3 -3 -11
0 -18 7 -9 10 -8 11 6 5 10 -3 15 -9 12 -12z m-7428 -29 c-3 -10 -5 -4 -5 12
0 17 2 24 5 18 2 -7 2 -21 0 -30z m7566 20 c-24 -2 -62 -2 -85 0 -24 2 -5 4
42 4 47 0 66 -2 43 -4z m-9180 -72 c53 -59 45 -60 -11 -1 -27 28 -53 50 -58
50 -5 0 -20 -18 -34 -40 -13 -21 -26 -37 -28 -35 -2 2 8 20 22 41 14 20 23 41
19 46 -14 24 58 -25 90 -61z m8454 37 c-3 -8 -6 -5 -6 6 -1 11 2 17 5 13 3 -3
4 -12 1 -19z m-7680 -25 c-3 -10 -5 -4 -5 12 0 17 2 24 5 18 2 -7 2 -21 0 -30z
m830 -40 c-3 -10 -5 -4 -5 12 0 17 2 24 5 18 2 -7 2 -21 0 -30z m-820 -25 c-3
-7 -5 -2 -5 12 0 14 2 19 5 13 2 -7 2 -19 0 -25z m-727 -43 c0 -5 -5 -3 -10 5
-5 8 -10 20 -10 25 0 6 5 3 10 -5 5 -8 10 -19 10 -25z m-203 -67 c-2 -18 -4
-4 -4 32 0 36 2 50 4 33 2 -18 2 -48 0 -65z m1803 76 c0 -2 -16 -4 -35 -4 -19
0 -35 4 -35 8 0 4 16 6 35 4 19 -2 35 -6 35 -8z m-863 0 c-3 -3 -12 -4 -19 -1
-8 3 -5 6 6 6 11 1 17 -2 13 -5z m-97 -46 c19 -24 26 -37 17 -29 -19 15 -61
71 -54 71 2 0 19 -19 37 -42z m1060 38 c0 -3 -4 -8 -10 -11 -5 -3 -10 -1 -10
4 0 6 5 11 10 11 6 0 10 -2 10 -4z m-1693 -38 c-3 -8 -6 -5 -6 6 -1 11 2 17 5
13 3 -3 4 -12 1 -19z m10 -125 c-2 -21 -4 -4 -4 37 0 41 2 58 4 38 2 -21 2
-55 0 -75z m-188 -3 c11 -24 11 -24 -3 -6 -9 11 -16 24 -16 30 0 12 5 7 19
-24z m9438 -42 c-2 -13 -4 -5 -4 17 -1 22 1 32 4 23 2 -10 2 -28 0 -40z m320
-105 c-2 -32 -3 -8 -3 52 0 61 1 87 3 58 2 -29 2 -78 0 -110z m-9655 25 c33
-30 33 -30 -9 2 -24 17 -52 46 -64 63 l-21 32 30 -33 c17 -19 45 -47 64 -64z
m75 50 c-3 -8 -6 -5 -6 6 -1 11 2 17 5 13 3 -3 4 -12 1 -19z m-10 -40 c-3 -8
-6 -5 -6 6 -1 11 2 17 5 13 3 -3 4 -12 1 -19z m-16 -41 c-10 -9 -11 -8 -5 6 3
10 9 15 12 12 3 -3 0 -11 -7 -18z m9596 -224 c-2 -32 -3 -8 -3 52 0 61 1 87 3
58 2 -29 2 -78 0 -110z m-2574 37 c48 -35 87 -69 87 -75 -1 -12 -230 -179
-237 -171 -3 2 35 35 83 73 129 100 129 101 124 105 -3 3 -51 40 -107 82 -57
43 -103 83 -103 88 0 6 15 0 33 -14 17 -13 71 -53 120 -88z m-7125 -10 c-9
-13 -14 -16 -20 -7 -8 13 10 39 23 31 5 -3 3 -14 -3 -24z m56 -2 c-3 -5 -12
-4 -20 3 -7 6 -11 15 -8 21 3 5 12 4 20 -3 7 -6 11 -15 8 -21z m8 -30 c-7 -7
-12 -8 -12 -2 0 6 3 14 7 17 3 4 9 5 12 2 2 -3 -1 -11 -7 -17z m-92 -53 c-8
-40 -8 -40 -9 15 0 35 3 50 8 40 5 -8 5 -33 1 -55z m101 2 c-8 -8 -11 -5 -11
9 0 27 14 41 18 19 2 -9 -1 -22 -7 -28z m254 -10 c23 -33 17 -116 -8 -100 -6
4 -8 0 -5 -9 8 -19 -6 -41 -26 -44 -9 -1 -14 2 -10 7 3 5 10 7 15 3 6 -3 9 0
8 7 -1 8 1 27 6 42 6 21 10 25 16 15 6 -8 9 0 9 25 0 21 -4 36 -9 32 -5 -3
-13 -1 -16 5 -4 6 -21 16 -38 23 l-31 13 37 1 c27 1 41 -5 52 -20z m10198 16
c-7 -2 -21 -2 -30 0 -10 3 -4 5 12 5 17 0 24 -2 18 -5z m220 0 c-7 -2 -21 -2
-30 0 -10 3 -4 5 12 5 17 0 24 -2 18 -5z m-10510 -28 c-10 -7 -22 -11 -26 -8
-5 3 -7 -1 -5 -9 5 -21 -33 -98 -45 -91 -6 4 -8 0 -4 -10 8 -21 -2 -49 -14
-41 -6 3 -7 -6 -4 -23 5 -23 4 -25 -5 -10 -13 21 -4 60 12 51 7 -5 9 -1 5 9
-8 22 2 49 16 40 6 -4 8 0 4 11 -5 11 -3 15 5 10 8 -5 9 -2 5 10 -5 11 -3 15
5 10 7 -5 9 -2 5 9 -8 21 29 68 49 60 12 -4 12 -7 -3 -18z m8702 11 c19 -8 70
-49 112 -92 43 -42 92 -82 109 -90 16 -7 73 -15 124 -19 142 -9 195 -51 228
-183 l19 -73 34 28 c65 53 97 102 110 163 7 34 7 34 8 5 1 -39 -47 -122 -95
-165 -66 -57 -117 -75 -219 -75 -83 0 -95 3 -150 33 -40 22 -130 99 -270 231
l-210 198 -5 -141 -6 -141 -2 148 c-1 81 2 147 6 147 4 0 107 -93 227 -207
242 -227 282 -254 390 -261 58 -4 124 8 154 27 13 8 12 18 -3 73 -36 132 -81
167 -224 175 -119 7 -145 19 -232 108 -36 36 -79 75 -97 86 -44 27 -107 27
-144 0 -31 -23 -40 -14 -11 11 35 31 93 36 147 14z m1550 3 c16 -7 13 -8 -13
-4 -20 3 -31 1 -27 -5 3 -6 -1 -7 -10 -4 -9 4 -15 3 -13 -2 4 -12 -54 -70 -66
-66 -5 2 -6 -4 -2 -13 3 -9 2 -13 -4 -10 -6 4 -8 -7 -5 -27 5 -30 5 -31 -5 -9
-13 31 0 68 38 103 50 46 72 54 107 37z m106 1 c15 -9 17 -15 9 -30 -14 -25
-13 -37 2 -22 9 9 16 8 30 -5 22 -20 23 -10 2 21 -17 26 -7 40 21 30 16 -6 16
-8 1 -16 -14 -8 -15 -12 -2 -30 8 -11 12 -27 9 -36 -4 -10 -2 -13 5 -8 14 8
14 10 16 -109 1 -49 3 -118 4 -152 l2 -63 100 0 c73 0 100 3 101 13 1 6 5 71
9 142 l8 130 -2 -142 -1 -142 75 -4 c41 -1 -144 -4 -412 -5 -378 -2 -487 -5
-491 -14 -3 -8 -6 -6 -6 5 -1 18 55 21 367 17 l102 -1 1 153 c0 95 4 145 9
133 5 -11 9 -80 9 -152 l1 -133 55 0 55 0 0 133 c0 72 3 143 7 156 4 17 3 22
-5 17 -7 -4 -12 -3 -12 2 0 5 -10 21 -21 36 -19 25 -23 26 -38 11 -10 -8 -21
-12 -26 -8 -4 5 -5 0 -2 -10 5 -12 3 -16 -4 -11 -8 4 -9 -1 -5 -17 6 -21 5
-21 -4 -6 -9 14 -7 25 10 52 20 32 20 36 5 41 -13 6 -14 9 -3 16 8 6 1 7 -22
4 -26 -5 -30 -4 -15 3 27 13 33 13 56 1z m128 -6 c10 -9 -35 -3 -49 6 -11 8
-7 9 15 4 17 -4 32 -8 34 -10z m61 6 c-8 -5 -24 -9 -35 -9 -16 1 -16 2 5 9 35
11 48 11 30 0z m79 -43 c16 -18 18 -25 8 -23 -22 3 -48 27 -41 38 3 5 0 9 -7
7 -8 -1 -21 -1 -29 0 -13 1 -13 3 -1 10 18 11 37 2 70 -32z m-1172 -124 c-2
-32 -3 -8 -3 52 0 61 1 87 3 58 2 -29 2 -78 0 -110z m-9597 117 c0 -16 -4 -30
-10 -30 -11 0 -14 43 -3 53 11 12 13 8 13 -23z m-109 -57 c-10 -17 -10 -17
-11 2 0 11 4 31 8 45 l7 25 3 -27 c2 -15 -1 -35 -7 -45z m8591 -8 c44 -19 90
-35 103 -35 14 0 25 -5 25 -10 0 -17 -67 -1 -140 33 -85 39 -155 42 -224 8
-28 -14 -97 -70 -158 -127 -61 -59 -130 -115 -160 -130 -59 -30 -152 -42 -208
-27 -30 8 -23 9 46 10 118 1 168 26 303 157 182 175 247 194 413 121z m-8721
24 c11 -5 17 -15 13 -20 -3 -6 2 -9 12 -7 11 2 19 -3 19 -11 0 -8 6 -16 14
-19 9 -3 11 0 6 9 -4 8 11 -4 34 -26 35 -33 43 -37 51 -25 9 13 10 13 10 0 0
-8 -4 -22 -9 -29 -6 -9 -6 -22 0 -33 15 -27 4 -22 -16 8 -9 15 -12 23 -5 19 8
-5 11 -3 8 6 -3 8 -9 14 -14 14 -5 0 -33 19 -62 42 -28 23 -62 45 -73 48 -17
6 -19 9 -8 16 11 7 10 9 -4 9 -26 0 -32 -27 -14 -65 15 -31 15 -33 -1 -30 -11
1 -16 10 -15 24 2 12 -1 20 -6 17 -6 -4 -8 38 -2 62 2 6 45 1 62 -9z m11032
-6 c-3 -7 -6 -13 -8 -13 -2 0 -5 6 -8 13 -3 8 1 14 8 14 7 0 11 -6 8 -14z m8
-34 c-5 -13 -10 -19 -10 -12 -1 15 10 45 15 40 3 -2 0 -15 -5 -28z m-10895
-25 c-4 -14 -9 -24 -12 -21 -3 2 -2 17 2 31 3 15 9 25 11 22 3 -3 2 -17 -1
-32z m86 -194 c-13 -13 -14 -9 -8 40 3 30 7 87 8 125 1 60 2 54 8 -40 6 -91 5
-113 -8 -125z m10245 128 c-2 -13 -4 -3 -4 22 0 25 2 35 4 23 2 -13 2 -33 0
-45z m-10057 23 c-21 -29 -70 -84 -56 -64 17 25 -1 23 -25 -3 l-23 -25 30 5
c17 3 50 13 74 21 49 17 60 18 60 6 0 -5 -15 -12 -34 -15 -19 -4 -62 -21 -97
-39 l-64 -32 80 -6 80 -5 -87 -2 c-81 -2 -118 8 -83 22 8 3 14 9 13 14 -4 12
124 149 139 149 8 0 5 -9 -7 -26z m-396 -47 c18 -21 34 -43 34 -49 0 -5 6 -11
13 -14 7 -2 9 1 4 9 -4 7 4 4 19 -5 14 -9 23 -22 19 -28 -4 -7 0 -8 13 -3 15
6 16 4 7 -5 -9 -9 -19 -7 -45 9 -32 20 -127 113 -99 97 9 -5 12 -3 9 6 -3 8
-10 14 -15 14 -6 0 -14 3 -18 7 -4 3 0 5 9 4 9 -1 31 -20 50 -42z m256 1 c0
-5 -5 -3 -10 5 -5 8 -10 20 -10 25 0 6 5 3 10 -5 5 -8 10 -19 10 -25z m285 -5
c4 -6 -8 -10 -29 -10 -20 0 -36 5 -36 10 0 6 13 10 29 10 17 0 33 -4 36 -10z
m53 -2 c7 -7 12 -19 12 -28 0 -22 -36 -54 -50 -45 -8 5 -5 12 9 22 25 17 28
43 5 43 -8 0 -12 5 -9 10 8 13 18 13 33 -2z m-435 -58 c-3 -17 -2 -21 5 -12 7
11 10 10 16 -3 9 -25 6 -43 -4 -20 -8 18 -9 18 -9 2 -1 -14 -6 -17 -22 -12
-15 5 -19 4 -15 -4 5 -8 -64 -10 -251 -9 l-258 2 250 7 c297 8 287 7 278 34
-7 22 -7 30 -4 60 l2 20 9 -20 c4 -11 6 -31 3 -45z m87 20 c0 -13 -1 -13 -10
0 -5 8 -10 22 -10 30 0 13 1 13 10 0 5 -8 10 -22 10 -30z m295 -39 c9 -15 -36
-25 -49 -11 -8 10 -6 11 13 5 16 -5 21 -4 17 4 -4 6 -3 11 3 11 5 0 12 -4 16
-9z m8406 -325 c55 -43 98 -80 95 -83 -2 -2 -49 33 -105 78 l-101 82 2 106 2
106 4 -105 3 -105 100 -79z m-121 209 c0 -13 -40 -83 -55 -95 -27 -23 -25 -7
8 47 28 46 47 65 47 48z m1338 -12 c-10 -2 -26 -2 -35 0 -10 3 -2 5 17 5 19 0
27 -2 18 -5z m1229 -25 c-3 -7 -5 -2 -5 12 0 14 2 19 5 13 2 -7 2 -19 0 -25z
m-3422 -63 c15 -42 25 -78 21 -82 -3 -3 -6 -1 -6 5 0 6 -10 37 -22 69 l-23 58
-5 -340 -5 -340 -3 358 c-1 209 2 356 7 353 5 -3 21 -40 36 -81z m2118 78 c-7
-2 -21 -2 -30 0 -10 3 -4 5 12 5 17 0 24 -2 18 -5z m-70 -10 c-7 -2 -19 -2
-25 0 -7 3 -2 5 12 5 14 0 19 -2 13 -5z m-50 -10 c-7 -2 -19 -2 -25 0 -7 3 -2
5 12 5 14 0 19 -2 13 -5z m-50 -10 c-7 -2 -19 -2 -25 0 -7 3 -2 5 12 5 14 0
19 -2 13 -5z m-46 -9 c-3 -3 -12 -4 -19 -1 -8 3 -5 6 6 6 11 1 17 -2 13 -5z
m-50 -10 c-3 -3 -12 -4 -19 -1 -8 3 -5 6 6 6 11 1 17 -2 13 -5z m-1187 -11
c-8 -3 -25 -15 -37 -26 -13 -11 -26 -17 -30 -13 -12 11 36 46 61 45 14 0 16
-2 6 -6z m1147 1 c-3 -3 -12 -4 -19 -1 -8 3 -5 6 6 6 11 1 17 -2 13 -5z m1620
-31 c-3 -10 -5 -4 -5 12 0 17 2 24 5 18 2 -7 2 -21 0 -30z m-1660 21 c-3 -3
-12 -4 -19 -1 -8 3 -5 6 6 6 11 1 17 -2 13 -5z m-40 -10 c-3 -3 -12 -4 -19 -1
-8 3 -5 6 6 6 11 1 17 -2 13 -5z m-40 -10 c-3 -3 -12 -4 -19 -1 -8 3 -5 6 6 6
11 1 17 -2 13 -5z m-70 -20 c-3 -3 -12 -4 -19 -1 -8 3 -5 6 6 6 11 1 17 -2 13
-5z m-40 -10 c-3 -3 -12 -4 -19 -1 -8 3 -5 6 6 6 11 1 17 -2 13 -5z m1860 -41
c-3 -10 -5 -4 -5 12 0 17 2 24 5 18 2 -7 2 -21 0 -30z m-1942 17 c-11 -5 -27
-9 -35 -9 -9 0 -8 4 5 9 11 5 27 9 35 9 9 0 8 -4 -5 -9z m-100 -30 c-11 -5
-27 -9 -35 -9 -9 0 -8 4 5 9 11 5 27 9 35 9 9 0 8 -4 -5 -9z m-1368 -52 c-2
-13 -4 -5 -4 17 -1 22 1 32 4 23 2 -10 2 -28 0 -40z m3420 -5 c-3 -10 -5 -4
-5 12 0 17 2 24 5 18 2 -7 2 -21 0 -30z m-2276 -14 c-30 -10 -56 -17 -58 -15
-5 5 77 34 97 34 8 1 -9 -8 -39 -19z m-1061 -19 c0 -5 -20 -10 -45 -10 l-45 0
-2 -172 -2 -173 -3 170 c-2 93 -1 175 1 182 6 15 96 18 96 3z m3347 -47 c-3
-10 -5 -4 -5 12 0 17 2 24 5 18 2 -7 2 -21 0 -30z m10 -70 c-3 -10 -5 -4 -5
12 0 17 2 24 5 18 2 -7 2 -21 0 -30z m10 -70 c-3 -10 -5 -4 -5 12 0 17 2 24 5
18 2 -7 2 -21 0 -30z m-608 -44 c146 -39 267 -72 269 -74 4 -4 -35 -418 -43
-472 l-6 -31 -452 114 c-249 63 -456 116 -461 118 -5 1 26 29 70 61 103 78
263 233 310 301 21 30 39 54 42 54 3 0 125 -32 271 -71z m618 -31 c-3 -7 -5
-2 -5 12 0 14 2 19 5 13 2 -7 2 -19 0 -25z m10 -75 c-3 -10 -5 -4 -5 12 0 17
2 24 5 18 2 -7 2 -21 0 -30z m10 -70 c-3 -10 -5 -4 -5 12 0 17 2 24 5 18 2 -7
2 -21 0 -30z m-3500 -35 c-2 -13 -4 -5 -4 17 -1 22 1 32 4 23 2 -10 2 -28 0
-40z m3510 -35 c-3 -10 -5 -4 -5 12 0 17 2 24 5 18 2 -7 2 -21 0 -30z m-3570
-15 c-3 -7 -5 -2 -5 12 0 14 2 19 5 13 2 -7 2 -19 0 -25z m-10 -40 c-3 -8 -6
-5 -6 6 -1 11 2 17 5 13 3 -3 4 -12 1 -19z m65 -105 c2 -44 0 -76 -4 -70 -4 7
-7 53 -6 102 1 103 6 88 10 -32z m3525 80 c-3 -10 -5 -4 -5 12 0 17 2 24 5 18
2 -7 2 -21 0 -30z m-3616 -57 c-63 -145 -224 -297 -351 -330 -14 -4 7 8 45 27
39 19 94 53 123 76 66 53 145 158 174 234 13 31 24 53 26 49 1 -5 -6 -30 -17
-56z m3626 -13 c-3 -10 -5 -4 -5 12 0 17 2 24 5 18 2 -7 2 -21 0 -30z m-1419
-25 l-1 -43 -4 38 c-3 24 -8 35 -15 31 -7 -4 -8 -2 -4 4 15 25 26 10 24 -30z
m-53 6 c-26 -20 -55 -36 -55 -30 0 5 63 46 70 46 3 -1 -4 -8 -15 -16z m1482
-51 c-3 -10 -5 -4 -5 12 0 17 2 24 5 18 2 -7 2 -21 0 -30z m-1551 1 c0 -10 13
-24 31 -33 33 -16 45 -51 18 -51 -8 0 -15 5 -15 11 0 5 6 7 13 4 17 -9 -39 42
-60 54 -16 9 -16 12 -3 21 8 5 16 10 16 10 1 0 1 -7 0 -16z m114 -33 c0 -28
-2 -30 -40 -21 -3 0 3 5 13 11 9 5 17 17 17 24 0 8 2 15 5 15 3 0 5 -13 5 -29z
m-23 3 c-3 -3 -12 -4 -19 -1 -8 3 -5 6 6 6 11 1 17 -2 13 -5z m-2053 -41 c9
-18 14 -33 12 -33 -6 0 -36 55 -36 66 0 11 5 3 24 -33z m995 24 c-2 -1 -12 -9
-22 -16 -15 -12 -17 -12 -11 3 3 9 13 16 22 16 8 0 13 -1 11 -3z m2528 -29
c-3 -7 -5 -2 -5 12 0 14 2 19 5 13 2 -7 2 -19 0 -25z m-2487 12 c8 -5 11 -10
5 -10 -5 0 -17 5 -25 10 -8 5 -10 10 -5 10 6 0 17 -5 25 -10z m40 -14 c0 -8
-291 -196 -303 -196 -7 0 6 15 28 34 22 19 46 31 54 28 8 -3 12 -1 8 5 -4 6 1
17 10 24 12 10 14 10 9 2 -13 -23 8 -13 94 46 80 55 100 67 100 57z m990 -6
c0 -5 -8 -10 -17 -10 -15 0 -16 2 -3 10 19 12 20 12 20 0z m-1129 -28 c-11
-16 -28 -35 -38 -43 -9 -8 -2 5 17 29 38 48 52 57 21 14z m2596 -39 c-3 -10
-5 -4 -5 12 0 17 2 24 5 18 2 -7 2 -21 0 -30z m-3482 -9 c9 -15 12 -23 6 -20
-11 7 -35 46 -28 46 3 0 12 -12 22 -26z m-656 0 c2 -2 -2 -27 -10 -56 l-14
-53 -263 -3 c-285 -3 -301 1 -212 45 54 27 132 43 211 43 48 0 59 3 64 20 6
18 13 19 113 14 59 -3 109 -8 111 -10z m-3045 -71 c33 -13 48 -21 31 -18 -24
5 -86 32 -167 73 -5 2 -8 -17 -8 -41 l0 -45 357 -1 c196 -1 359 -3 361 -6 3
-3 -160 -5 -361 -5 l-367 0 0 60 0 61 46 -27 c26 -15 74 -38 108 -51z m7193
10 c-3 -10 -5 -4 -5 12 0 17 2 24 5 18 2 -7 2 -21 0 -30z m-3426 -25 l20 -28
-357 0 c-197 0 -355 3 -351 6 3 3 159 5 347 5 367 -2 351 -4 306 49 -15 18
-16 21 -3 11 10 -8 27 -27 38 -43z m1274 30 c-11 -6 -45 -20 -75 -30 l-55 -18
163 2 c89 0 166 -2 169 -6 3 -3 -83 -6 -193 -5 l-199 1 95 32 c104 36 125 41
95 24z m85 -8 c8 -5 11 -10 5 -10 -5 0 -17 5 -25 10 -8 5 -10 10 -5 10 6 0 17
-5 25 -10z m2640 -49 l315 -8 -442 -1 c-349 -2 -443 1 -443 11 0 9 31 11 127
9 71 -2 270 -7 443 -11z m-12500 -1 c0 -6 -63 -9 -172 -8 -171 2 -172 2 -58 8
199 10 230 10 230 0z m11328 -7 c-53 -2 -143 -2 -200 0 -57 1 -13 3 97 3 110
0 156 -2 103 -3z m-2738 -40 c0 -7 -39 17 -46 28 -3 6 5 3 20 -6 14 -10 26
-19 26 -22z m500 12 c-25 -13 -49 -24 -55 -24 -5 0 10 11 35 24 25 13 50 24
55 24 6 0 -10 -11 -35 -24z m112 -63 c9 -2 87 18 173 43 86 25 161 45 167 43
10 -4 -318 -99 -339 -98 -17 0 -40 38 -48 75 -4 20 0 15 12 -15 10 -25 26 -46
35 -48z m1718 29 c-9 -19 -19 -21 -88 -19 l-77 2 70 3 c75 4 94 14 96 47 1 16
2 17 6 4 2 -9 -1 -26 -7 -37z m-500 -21 l85 -7 -71 -1 c-47 -1 -89 4 -127 17
-30 11 -59 16 -63 13 -4 -4 -4 -2 0 5 5 9 17 8 49 -4 23 -9 80 -19 127 -23z
m-1765 20 c13 -6 15 -9 5 -9 -8 0 -22 4 -30 9 -18 12 -2 12 25 0z m332 -6 c-3
-3 -12 -4 -19 -1 -8 3 -5 6 6 6 11 1 17 -2 13 -5z m-280 -10 c-3 -3 -12 -4
-19 -1 -8 3 -5 6 6 6 11 1 17 -2 13 -5z m240 0 c-3 -3 -12 -4 -19 -1 -8 3 -5
6 6 6 11 1 17 -2 13 -5z m-89 -11 c-21 -2 -57 -2 -80 0 -24 2 -7 4 37 4 44 0
63 -2 43 -4z m1830 0 c-32 -2 -86 -2 -120 0 -35 2 -9 3 57 3 66 0 94 -1 63 -3z"/>
<path d="M10970 9186 c0 -2 7 -6 15 -10 8 -3 15 -1 15 4 0 6 -7 10 -15 10 -8
0 -15 -2 -15 -4z"/>
<path d="M11002 9120 c0 -19 2 -27 5 -17 2 9 2 25 0 35 -3 9 -5 1 -5 -18z"/>
<path d="M11202 9143 l87 -4 -6 -37 c-7 -48 2 -39 11 11 l7 37 -93 -2 -93 -2
87 -3z"/>
<path d="M8508 9083 c50 -2 134 -2 185 0 50 1 9 3 -93 3 -102 0 -143 -2 -92
-3z"/>
<path d="M11012 9050 c0 -19 2 -27 5 -17 2 9 2 25 0 35 -3 9 -5 1 -5 -18z"/>
<path d="M11271 9038 c-1 -27 -1 -27 -88 -31 l-88 -3 88 -2 c92 -2 105 4 94
45 -3 12 -5 9 -6 -9z"/>
<path d="M8508 9003 c50 -2 134 -2 185 0 50 1 9 3 -93 3 -102 0 -143 -2 -92
-3z"/>
<path d="M11021 8983 l-1 -33 108 2 107 2 -102 3 -102 4 -4 27 c-4 25 -4 24
-6 -5z"/>
<path d="M8518 8923 c45 -2 119 -2 165 0 45 1 8 3 -83 3 -91 0 -128 -2 -82 -3z"/>
<path d="M11053 8913 c-18 -7 -16 -42 3 -50 8 -3 20 -1 26 5 8 8 5 9 -11 5
-24 -6 -29 15 -9 35 13 13 11 14 -9 5z"/>
<path d="M11200 8905 c-16 -19 -6 -45 17 -45 15 0 15 1 -2 14 -16 12 -17 16
-6 30 7 9 11 16 8 16 -2 0 -10 -7 -17 -15z"/>
<path d="M9270 8570 l0 -30 580 0 580 0 0 30 0 30 -580 0 -580 0 0 -30z"/>
<path d="M9533 8383 c186 -2 488 -2 670 0 183 1 31 2 -338 2 -368 0 -518 -1
-332 -2z"/>
<path d="M9304 7795 c-69 -15 -111 -34 -135 -61 -27 -30 -154 -290 -290 -591
l-28 -63 72 -40 72 -39 18 54 c23 69 91 145 159 179 54 27 88 33 88 16 0 -5
-7 -10 -15 -10 -28 0 -103 -41 -140 -77 -37 -36 -85 -123 -85 -155 0 -11 36
-36 106 -73 58 -31 107 -55 108 -53 2 1 20 51 41 111 21 59 41 107 46 107 9 0
14 -17 79 -255 23 -82 43 -151 45 -154 8 -8 77 52 106 92 134 186 15 439 -219
463 -36 4 -59 11 -55 17 7 12 81 2 145 -19 104 -34 186 -146 195 -268 9 -111
-37 -212 -127 -278 -35 -26 -40 -34 -35 -57 4 -20 -3 -42 -29 -85 -19 -32 -49
-97 -66 -144 -29 -80 -110 -373 -110 -398 0 -6 78 2 212 23 117 19 217 32 223
29 5 -2 25 -106 44 -231 26 -176 31 -229 21 -235 -13 -8 -453 -81 -458 -75 -2
1 -14 72 -27 156 -40 248 -35 238 -57 124 -47 -253 -75 -494 -84 -721 -4 -88
-4 -173 0 -187 l6 -27 280 0 279 0 57 98 c193 330 257 433 265 430 6 -2 79
-120 162 -263 l153 -260 132 -3 132 -3 0 138 c0 126 -20 421 -36 543 l-7 50
-41 0 c-101 0 -227 52 -299 124 -167 168 -169 429 -5 594 27 28 70 61 94 74
24 12 44 25 44 28 0 9 -89 153 -112 182 l-21 27 18 106 c15 91 16 108 4 119
-8 7 -94 64 -192 126 -98 62 -180 116 -182 120 -5 9 279 451 298 464 17 11
480 -291 470 -308 -4 -6 -56 -85 -115 -176 -59 -90 -106 -166 -104 -168 4 -3
385 153 393 162 10 10 -321 592 -357 627 -58 56 -122 81 -222 87 l-88 5 0 -25
c0 -43 -49 -171 -86 -225 -40 -59 -109 -109 -161 -119 -50 -10 -145 1 -182 20
-90 47 -158 156 -201 324 l-11 42 -62 -1 c-34 0 -90 -7 -123 -14z m114 -161
c52 -34 55 -103 7 -151 -32 -32 -39 -35 -78 -30 -56 8 -87 43 -87 100 1 48 14
70 56 92 31 17 65 13 102 -11z m512 -1089 c102 -26 188 -50 192 -54 4 -4 -60
-74 -142 -156 -83 -82 -150 -143 -150 -135 0 8 59 74 132 147 90 90 127 134
117 137 -8 3 -92 28 -187 55 -113 31 -171 44 -168 35 23 -60 97 -351 94 -372
-3 -24 -108 354 -108 387 0 7 8 10 18 7 9 -3 100 -26 202 -51z m-337 -1325
c58 -64 13 -170 -73 -170 -81 0 -129 101 -79 164 43 54 105 57 152 6z"/>
<path d="M9325 7628 c-32 -17 -45 -39 -45 -79 0 -91 128 -107 161 -21 13 35
-6 79 -42 97 -33 18 -47 18 -74 3z"/>
<path d="M9485 5228 c-75 -43 -49 -158 35 -158 40 0 90 47 90 85 0 33 -50 85
-82 85 -13 0 -32 -6 -43 -12z"/>
<path d="M10023 7337 c-76 -116 -138 -217 -138 -224 0 -7 81 -67 180 -133
l180 -120 18 87 c10 49 23 112 29 141 6 28 14 52 18 52 3 0 16 -32 29 -71 12
-39 29 -86 37 -106 l15 -35 105 163 c57 89 104 165 104 168 0 5 -248 170 -396
263 l-42 27 -139 -212z"/>
<path d="M10282 6359 c-319 -212 -190 -700 195 -736 63 -6 63 -6 63 20 0 47
-49 312 -80 431 -28 111 -94 303 -109 319 -4 4 -35 -11 -69 -34z"/>
<path d="M9448 6016 c-109 -18 -200 -35 -203 -38 -5 -4 53 -422 60 -435 2 -4
434 62 439 68 3 3 -10 99 -29 215 -19 115 -35 212 -35 216 0 11 -13 10 -232
-26z"/>
<path d="M9865 5139 c-77 -137 -141 -254 -143 -259 -2 -6 101 -10 287 -10 160
0 291 2 291 5 0 7 -280 498 -288 506 -4 4 -70 -105 -147 -242z"/>
<path d="M9598 4053 c144 -2 380 -2 525 0 144 1 26 2 -263 2 -289 0 -407 -1
-262 -2z"/>
<path d="M9568 3923 c161 -2 422 -2 580 0 158 1 26 2 -293 2 -319 0 -448 -1
-287 -2z"/>
<path d="M8570 3747 c-87 -25 -156 -82 -202 -170 -32 -59 -32 -191 -1 -258 26
-57 87 -121 145 -150 65 -33 176 -37 250 -9 68 25 135 87 169 157 32 66 33
187 2 254 -63 138 -224 216 -363 176z m160 -125 c0 -5 -49 -46 -110 -91 l-109
-83 110 -85 c61 -47 108 -87 105 -90 -3 -3 -11 -1 -18 4 -7 5 -62 45 -121 88
-126 92 -129 72 33 189 114 82 110 80 110 68z"/>
<path d="M9660 3524 c0 -17 6 -24 20 -24 19 0 20 -7 20 -90 l0 -90 30 0 30 0
0 110 c0 61 -3 111 -7 111 -5 1 -27 3 -50 4 -39 3 -43 1 -43 -21z"/>
<path d="M9854 3540 c-35 -14 -54 -50 -54 -103 0 -63 21 -103 63 -116 61 -21
115 17 124 87 13 99 -53 164 -133 132z m80 -81 c16 -65 -38 -129 -71 -83 -16
22 -17 78 -2 105 7 14 19 19 37 17 22 -2 29 -10 36 -39z"/>
<path d="M10067 3533 c-22 -22 9 -63 35 -47 6 4 9 1 6 -7 -2 -7 -15 -17 -29
-21 -19 -5 -17 -6 11 -5 32 2 35 5 38 36 4 35 -9 51 -39 51 -9 0 -19 -3 -22
-7z m43 -24 c0 -5 -7 -9 -15 -9 -15 0 -20 12 -9 23 8 8 24 -1 24 -14z"/>
<path d="M10150 3525 c-14 -17 -6 -33 24 -45 21 -8 21 -8 -4 -18 l-25 -11 28
0 c20 -1 31 6 38 23 21 46 -29 89 -61 51z m40 -16 c0 -5 -7 -9 -15 -9 -15 0
-20 12 -9 23 8 8 24 -1 24 -14z"/>
<path d="M10060 3400 c0 -6 31 -10 74 -10 41 0 78 5 81 10 4 6 -23 10 -74 10
-47 0 -81 -4 -81 -10z"/>
<path d="M12850 6934 c-37 -16 -85 -57 -101 -87 -6 -9 10 2 34 27 24 24 61 49
82 56 115 38 333 -41 385 -138 10 -20 19 -32 20 -26 0 6 -10 26 -23 45 -69
102 -288 170 -397 123z"/>
<path d="M13272 6725 c0 -16 2 -22 5 -12 2 9 2 23 0 30 -3 6 -5 -1 -5 -18z"/>
<path d="M13272 6645 c0 -16 2 -22 5 -12 2 9 2 23 0 30 -3 6 -5 -1 -5 -18z"/>
<path d="M13261 6594 c0 -11 3 -14 6 -6 3 7 2 16 -1 19 -3 4 -6 -2 -5 -13z"/>
<path d="M7100 6050 c0 -11 6 -20 14 -20 9 0 12 7 9 20 -3 11 -9 20 -14 20 -5
0 -9 -9 -9 -20z"/>
<path d="M7412 6045 c-13 -28 -28 -113 -19 -105 6 6 37 123 33 127 -1 2 -8 -8
-14 -22z"/>
<path d="M4707 6169 c-78 -22 -137 -103 -137 -188 0 -41 21 -120 36 -140 2 -2
23 8 48 23 96 56 136 158 106 268 -13 45 -17 47 -53 37z"/>
<path d="M4171 6099 c-27 -78 1 -177 65 -225 33 -26 123 -59 133 -49 11 12 12
125 1 160 -16 47 -63 101 -111 126 -55 28 -75 25 -88 -12z"/>
<path d="M14394 6054 c-18 -14 -18 -15 4 -4 12 6 22 13 22 15 0 8 -5 6 -26
-11z"/>
<path d="M14297 5979 c-26 -22 -56 -55 -68 -72 -18 -29 -17 -28 14 6 20 21 53
54 74 72 21 19 35 34 32 35 -3 0 -27 -18 -52 -41z"/>
<path d="M15250 6046 c0 -2 8 -10 18 -17 15 -13 16 -12 3 4 -13 16 -21 21 -21
13z"/>
<path d="M15350 5955 c35 -36 67 -65 69 -65 3 0 -24 29 -59 65 -35 36 -67 65
-69 65 -3 0 24 -29 59 -65z"/>
<path d="M4943 5861 c-67 -17 -121 -73 -144 -149 -16 -55 -7 -62 76 -62 73 0
130 24 169 71 28 33 56 87 56 108 0 26 -100 46 -157 32z"/>
<path d="M5425 5639 c-62 -55 -70 -139 -20 -213 18 -27 23 -44 20 -78 -6 -53
-48 -141 -80 -167 l-25 -19 31 -12 c16 -7 44 -29 62 -50 18 -20 44 -40 59 -43
l26 -7 -19 50 c-32 83 -18 211 27 262 16 16 16 21 4 28 -8 6 -19 10 -25 10 -5
0 -3 -5 5 -10 12 -8 11 -10 -7 -10 -12 0 -30 -3 -40 -6 -15 -5 -15 -4 2 7 11
7 28 22 37 33 10 12 17 16 18 9 0 -7 5 -13 11 -13 9 0 9 4 0 14 -8 10 -7 21 5
45 22 45 15 128 -15 169 -12 18 -26 32 -31 32 -5 0 -25 -14 -45 -31z"/>
<path d="M5527 5610 c3 -11 12 -20 19 -20 20 0 17 18 -5 29 -16 9 -18 8 -14
-9z"/>
<path d="M5645 5601 c-28 -7 -105 -41 -105 -45 0 -2 22 -3 50 -4 84 -2 157
-46 205 -125 8 -14 17 -15 50 -7 22 5 54 7 71 4 30 -6 32 -4 36 31 4 32 0 40
-31 67 -72 63 -198 99 -276 79z"/>
<path d="M5161 5555 c-79 -25 -137 -101 -141 -185 -3 -51 6 -80 24 -80 7 0 35
7 63 15 91 27 163 126 163 226 0 40 -34 47 -109 24z"/>
<path d="M4865 5440 c10 -11 20 -20 23 -20 3 0 -3 9 -13 20 -10 11 -20 20 -23
20 -3 0 3 -9 13 -20z"/>
<path d="M5220 5368 c-18 -22 -48 -47 -66 -56 l-34 -16 24 -25 c33 -34 56 -91
56 -137 l0 -37 25 23 c14 13 25 27 25 31 0 5 9 33 21 63 21 58 104 160 123
153 7 -3 13 4 13 15 2 18 -3 20 -36 15 -21 -2 -56 -2 -78 2 -38 7 -42 6 -73
-31z"/>
<path d="M5548 5393 c7 -3 16 -2 19 1 4 3 -2 6 -13 5 -11 0 -14 -3 -6 -6z"/>
<path d="M5650 5356 c0 -2 8 -10 18 -17 15 -13 16 -12 3 4 -13 16 -21 21 -21
13z"/>
<path d="M4960 5340 c0 -6 7 -10 15 -10 8 0 15 2 15 4 0 2 -7 6 -15 10 -8 3
-15 1 -15 -4z"/>
<path d="M5374 5341 c5 -8 -23 -39 -31 -33 -1 1 -3 0 -3 -3 2 -15 -35 -63 -43
-58 -6 3 -7 1 -3 -5 3 -6 1 -23 -4 -38 -6 -15 -8 -29 -5 -32 10 -11 77 64 96
106 23 53 23 58 3 66 -8 3 -13 2 -10 -3z"/>
<path d="M6335 5284 c-16 -8 -38 -23 -49 -32 -21 -20 -56 -85 -56 -105 0 -29
113 -36 166 -11 60 29 109 142 68 158 -29 11 -99 6 -129 -10z"/>
<path d="M4923 5175 c-13 -19 -43 -43 -72 -56 -27 -13 -52 -30 -55 -37 -4 -8
-1 -10 6 -6 8 5 9 2 5 -10 -4 -10 -3 -15 3 -11 6 3 10 2 10 -4 0 -7 8 -7 26
-1 60 23 152 7 210 -36 35 -25 44 -23 44 12 0 17 -11 29 -39 43 -42 22 -87 70
-105 113 l-11 26 -22 -33z"/>
<path d="M5520 5163 c-19 -9 -38 -15 -43 -15 -4 1 0 -14 8 -34 8 -20 15 -38
15 -41 0 -2 5 -1 12 3 8 5 9 2 5 -10 -4 -11 -3 -15 4 -11 6 4 19 -1 30 -11 11
-10 40 -19 72 -21 44 -4 58 0 95 23 23 16 42 33 42 39 0 17 -62 72 -93 84 -41
16 -106 13 -147 -6z"/>
<path d="M5770 5146 c0 -2 8 -10 18 -17 15 -13 16 -12 3 4 -13 16 -21 21 -21
13z"/>
<path d="M5945 5111 c-39 -8 -43 -41 -13 -101 31 -60 77 -90 139 -90 60 0 79
7 79 31 0 26 -33 89 -58 112 -30 28 -113 54 -147 48z"/>
<path d="M5206 5070 c-53 -64 -79 -136 -84 -234 -4 -87 -4 -88 16 -77 12 6 23
15 27 20 3 5 28 17 56 26 44 15 50 20 45 39 -9 37 -26 159 -28 211 l-3 49 -29
-34z"/>
<path d="M4843 5040 c-13 -5 -23 -8 -23 -5 0 2 -18 -13 -40 -32 -22 -20 -40
-40 -40 -44 0 -5 24 -21 53 -36 76 -40 170 -39 250 1 31 16 57 33 57 37 0 12
-62 57 -103 74 -40 16 -119 19 -154 5z"/>
<path d="M5116 5034 c-3 -9 -6 -32 -6 -52 l0 -37 20 44 c24 52 23 48 6 54 -8
3 -17 -1 -20 -9z"/>
<path d="M5380 5035 c-19 -9 -45 -26 -58 -38 -22 -20 -52 -68 -52 -81 0 -11
56 -34 85 -36 66 -5 86 1 121 33 34 32 69 105 56 119 -16 17 -117 18 -152 3z"/>
<path d="M5101 4914 c0 -11 3 -14 6 -6 3 7 2 16 -1 19 -3 4 -6 -2 -5 -13z"/>
<path d="M15350 4873 l-55 -58 58 55 c53 50 62 60 54 60 -1 0 -27 -26 -57 -57z"/>
<path d="M4444 5204 c-18 -14 -18 -14 6 -3 31 14 36 19 24 19 -6 0 -19 -7 -30
-16z"/>
<path d="M4700 5186 c0 -2 8 -10 18 -17 15 -13 16 -12 3 4 -13 16 -21 21 -21
13z"/>
<path d="M14030 5230 c-6 -11 -8 -20 -6 -20 3 0 10 9 16 20 6 11 8 20 6 20 -3
0 -10 -9 -16 -20z"/>
<path d="M13980 5160 c-6 -11 -8 -20 -6 -20 3 0 10 9 16 20 6 11 8 20 6 20 -3
0 -10 -9 -16 -20z"/>
<path d="M13900 5050 c-6 -11 -8 -20 -6 -20 3 0 10 9 16 20 6 11 8 20 6 20 -3
0 -10 -9 -16 -20z"/>
<path d="M12287 4884 c-13 -14 6 -24 43 -24 41 0 61 14 34 24 -21 8 -69 8 -77
0z"/>
<path d="M12292 4787 c-8 -9 0 -12 39 -12 49 0 63 8 33 19 -26 10 -61 7 -72
-7z"/>
<path d="M12180 4776 c0 -3 18 -47 40 -97 22 -51 40 -96 40 -100 0 -4 -12 -10
-26 -13 -37 -10 -22 -19 16 -11 38 8 37 15 -19 139 -34 73 -51 100 -51 82z"/>
<path d="M12334 4745 c-4 -9 -2 -21 4 -27 15 -15 44 -1 40 19 -4 23 -36 29
-44 8z"/>
<path d="M12112 4490 c0 -16 3 -32 8 -35 11 -7 70 6 70 16 0 15 -33 40 -46 35
-8 -3 -14 -1 -14 4 0 6 -4 10 -8 10 -5 0 -9 -13 -10 -30z"/>
<path d="M13850 4980 c-6 -11 -8 -20 -6 -20 3 0 10 9 16 20 6 11 8 20 6 20 -3
0 -10 -9 -16 -20z"/>
<path d="M14199 4962 c16 -30 117 -132 161 -162 19 -13 5 5 -32 39 -37 34 -84
81 -104 104 -20 23 -31 32 -25 19z"/>
<path d="M4262 4540 c-18 -17 -29 -30 -24 -30 5 0 21 14 37 30 37 38 30 38
-13 0z"/>
<path d="M4066 4431 c-4 -5 -2 -12 3 -15 5 -4 12 -2 15 3 4 5 2 12 -3 15 -5 4
-12 2 -15 -3z"/>
<path d="M4009 4373 c-13 -16 -12 -17 4 -4 9 7 17 15 17 17 0 8 -8 3 -21 -13z"/>
<path d="M4280 3415 c7 -9 15 -13 17 -11 7 7 -7 26 -19 26 -6 0 -6 -6 2 -15z"/>
<path d="M14360 3375 c-13 -14 -22 -26 -19 -28 2 -1 16 10 31 25 15 15 23 28
19 28 -4 0 -18 -11 -31 -25z"/>
<path d="M14810 3386 c0 -2 8 -10 18 -17 15 -13 16 -12 3 4 -13 16 -21 21 -21
13z"/>
<path d="M3920 3245 c13 -14 26 -25 28 -25 3 0 -5 11 -18 25 -13 14 -26 25
-28 25 -3 0 5 -11 18 -25z"/>
<path d="M4220 3208 c-15 -21 -17 -28 -6 -19 16 13 41 51 33 51 -2 0 -14 -15
-27 -32z"/>
<path d="M4129 3113 c-13 -16 -12 -17 4 -4 9 7 17 15 17 17 0 8 -8 3 -21 -13z"/>
<path d="M3850 3155 c13 -14 26 -25 28 -25 3 0 -5 11 -18 25 -13 14 -26 25
-28 25 -3 0 5 -11 18 -25z"/>
<path d="M3917 3099 c7 -7 15 -10 18 -7 3 3 -2 9 -12 12 -14 6 -15 5 -6 -5z"/>
<path d="M4429 3113 c-13 -16 -12 -17 4 -4 9 7 17 15 17 17 0 8 -8 3 -21 -13z"/>
</g>
</svg>
